<mxfile host="app.diagrams.net" agent="Mozilla/5.0 (Windows NT 10.0; Win64; x64) AppleWebKit/537.36 (KHTML, like Gecko) Chrome/134.0.0.0 Safari/537.36 Edg/134.0.0.0" version="26.1.3">
  <diagram id="VyOy5YucvuxAOatV3zWf" name="第 1 页">
    <mxGraphModel dx="405" dy="229" grid="1" gridSize="10" guides="1" tooltips="1" connect="1" arrows="1" fold="1" page="1" pageScale="1" pageWidth="827" pageHeight="1169" math="1" shadow="0">
      <root>
        <mxCell id="0" />
        <mxCell id="1" parent="0" />
        <mxCell id="a1OFb-E73zAF7D2NQ2un-400" value="" style="rounded=0;whiteSpace=wrap;html=1;fillColor=none;" parent="1" vertex="1">
          <mxGeometry x="313.63" y="910" width="63.25" height="60" as="geometry" />
        </mxCell>
        <mxCell id="a1OFb-E73zAF7D2NQ2un-408" value="" style="rounded=0;whiteSpace=wrap;html=1;fillColor=#D8D8D8;" parent="1" vertex="1">
          <mxGeometry x="326.88" y="913" width="40" height="17.18" as="geometry" />
        </mxCell>
        <mxCell id="a1OFb-E73zAF7D2NQ2un-142" value="&lt;font style=&quot;font-size: 10px;&quot; face=&quot;Linux Libertine&quot;&gt;`v_1`&lt;/font&gt;" style="ellipse;whiteSpace=wrap;html=1;aspect=fixed;fillColor=#d5e8d4;strokeColor=#82b366;" parent="1" vertex="1">
          <mxGeometry x="310" y="796.24" width="17.5" height="17.5" as="geometry" />
        </mxCell>
        <mxCell id="a1OFb-E73zAF7D2NQ2un-143" value="&lt;font style=&quot;font-size: 10px;&quot;&gt;`v_3`&lt;/font&gt;" style="ellipse;whiteSpace=wrap;html=1;aspect=fixed;fillColor=#d5e8d4;strokeColor=#82b366;" parent="1" vertex="1">
          <mxGeometry x="308.75" y="851.6600000000001" width="17.5" height="17.5" as="geometry" />
        </mxCell>
        <mxCell id="a1OFb-E73zAF7D2NQ2un-144" value="&lt;font style=&quot;font-size: 10px;&quot;&gt;`v_4`&lt;/font&gt;" style="ellipse;whiteSpace=wrap;html=1;aspect=fixed;fillColor=#d5e8d4;strokeColor=#82b366;" parent="1" vertex="1">
          <mxGeometry x="372.5" y="851.6566666666668" width="17.5" height="17.5" as="geometry" />
        </mxCell>
        <mxCell id="a1OFb-E73zAF7D2NQ2un-145" value="&lt;font style=&quot;font-size: 10px;&quot; face=&quot;Linux Libertine&quot;&gt;`v_2`&lt;/font&gt;" style="ellipse;whiteSpace=wrap;html=1;aspect=fixed;fillColor=#d5e8d4;strokeColor=#82b366;" parent="1" vertex="1">
          <mxGeometry x="372.5" y="796.2433333333333" width="17.5" height="17.5" as="geometry" />
        </mxCell>
        <mxCell id="a1OFb-E73zAF7D2NQ2un-146" value="" style="curved=1;endArrow=none;html=1;rounded=0;entryX=0.738;entryY=0.96;entryDx=0;entryDy=0;startFill=0;fillColor=#fff2cc;strokeColor=#d6b656;exitX=0.662;exitY=0.022;exitDx=0;exitDy=0;exitPerimeter=0;entryPerimeter=0;" parent="1" source="a1OFb-E73zAF7D2NQ2un-143" target="a1OFb-E73zAF7D2NQ2un-142" edge="1">
          <mxGeometry width="50" height="50" relative="1" as="geometry">
            <mxPoint x="320" y="850" as="sourcePoint" />
            <mxPoint x="320" y="811.6600000000001" as="targetPoint" />
            <Array as="points">
              <mxPoint x="329" y="830" />
            </Array>
          </mxGeometry>
        </mxCell>
        <mxCell id="a1OFb-E73zAF7D2NQ2un-147" value="" style="curved=1;endArrow=none;html=1;rounded=0;exitX=0.332;exitY=0.039;exitDx=0;exitDy=0;startFill=0;entryX=0.27;entryY=0.947;entryDx=0;entryDy=0;fillColor=#fff2cc;strokeColor=#d6b656;entryPerimeter=0;exitPerimeter=0;" parent="1" source="a1OFb-E73zAF7D2NQ2un-143" target="a1OFb-E73zAF7D2NQ2un-142" edge="1">
          <mxGeometry width="50" height="50" relative="1" as="geometry">
            <mxPoint x="333.125" y="857.4933333333335" as="sourcePoint" />
            <mxPoint x="320" y="802.4933333333333" as="targetPoint" />
            <Array as="points">
              <mxPoint x="311" y="830" />
            </Array>
          </mxGeometry>
        </mxCell>
        <mxCell id="a1OFb-E73zAF7D2NQ2un-148" value="" style="endArrow=none;html=1;rounded=0;entryX=0;entryY=0.5;entryDx=0;entryDy=0;fillColor=#fff2cc;strokeColor=#d6b656;exitX=1;exitY=0.5;exitDx=0;exitDy=0;" parent="1" source="a1OFb-E73zAF7D2NQ2un-143" target="a1OFb-E73zAF7D2NQ2un-144" edge="1">
          <mxGeometry width="50" height="50" relative="1" as="geometry">
            <mxPoint x="330" y="870" as="sourcePoint" />
            <mxPoint x="372.5" y="784.16" as="targetPoint" />
          </mxGeometry>
        </mxCell>
        <mxCell id="a1OFb-E73zAF7D2NQ2un-149" value="" style="curved=1;endArrow=none;html=1;rounded=0;exitX=0.105;exitY=0.272;exitDx=0;exitDy=0;entryX=0.961;entryY=0.255;entryDx=0;entryDy=0;startFill=0;fillColor=#fff2cc;strokeColor=#d6b656;entryPerimeter=0;exitPerimeter=0;" parent="1" source="a1OFb-E73zAF7D2NQ2un-145" target="a1OFb-E73zAF7D2NQ2un-142" edge="1">
          <mxGeometry width="50" height="50" relative="1" as="geometry">
            <mxPoint x="346.25" y="857.4933333333335" as="sourcePoint" />
            <mxPoint x="335.75" y="818.9933333333335" as="targetPoint" />
            <Array as="points">
              <mxPoint x="350" y="790" />
            </Array>
          </mxGeometry>
        </mxCell>
        <mxCell id="a1OFb-E73zAF7D2NQ2un-150" value="" style="curved=1;endArrow=none;html=1;rounded=0;exitX=0;exitY=0.5;exitDx=0;exitDy=0;startFill=0;entryX=1;entryY=0.5;entryDx=0;entryDy=0;fillColor=#fff2cc;strokeColor=#d6b656;" parent="1" source="a1OFb-E73zAF7D2NQ2un-145" target="a1OFb-E73zAF7D2NQ2un-142" edge="1">
          <mxGeometry width="50" height="50" relative="1" as="geometry">
            <mxPoint x="391.75" y="822.6600000000001" as="sourcePoint" />
            <mxPoint x="318.25" y="793.3266666666666" as="targetPoint" />
            <Array as="points">
              <mxPoint x="350" y="812" />
            </Array>
          </mxGeometry>
        </mxCell>
        <mxCell id="a1OFb-E73zAF7D2NQ2un-151" value="" style="endArrow=none;html=1;rounded=0;exitX=1;exitY=0;exitDx=0;exitDy=0;entryX=0;entryY=1;entryDx=0;entryDy=0;fillColor=#fff2cc;strokeColor=#d6b656;" parent="1" source="a1OFb-E73zAF7D2NQ2un-143" target="a1OFb-E73zAF7D2NQ2un-145" edge="1">
          <mxGeometry width="50" height="50" relative="1" as="geometry">
            <mxPoint x="302.5" y="894.1600000000001" as="sourcePoint" />
            <mxPoint x="390" y="802.4933333333333" as="targetPoint" />
          </mxGeometry>
        </mxCell>
        <mxCell id="a1OFb-E73zAF7D2NQ2un-267" value="&lt;font style=&quot;font-size: 8px;&quot;&gt;`e_1`&lt;/font&gt;" style="text;html=1;align=center;verticalAlign=middle;resizable=0;points=[];autosize=1;strokeColor=none;fillColor=none;" parent="1" vertex="1">
          <mxGeometry x="327.5" y="770" width="40" height="30" as="geometry" />
        </mxCell>
        <mxCell id="a1OFb-E73zAF7D2NQ2un-268" value="&lt;font style=&quot;font-size: 8px;&quot;&gt;`e_2`&lt;/font&gt;" style="text;html=1;align=center;verticalAlign=middle;resizable=0;points=[];autosize=1;strokeColor=none;fillColor=none;" parent="1" vertex="1">
          <mxGeometry x="327.5" y="796.24" width="40" height="30" as="geometry" />
        </mxCell>
        <mxCell id="a1OFb-E73zAF7D2NQ2un-269" value="&lt;font style=&quot;font-size: 8px;&quot;&gt;`e_3`&lt;/font&gt;" style="text;html=1;align=center;verticalAlign=middle;resizable=0;points=[];autosize=1;strokeColor=none;fillColor=none;" parent="1" vertex="1">
          <mxGeometry x="285.5" y="813.7399999999999" width="40" height="30" as="geometry" />
        </mxCell>
        <mxCell id="a1OFb-E73zAF7D2NQ2un-270" value="&lt;font style=&quot;font-size: 8px;&quot;&gt;`e_4`&lt;/font&gt;" style="text;html=1;align=center;verticalAlign=middle;resizable=0;points=[];autosize=1;strokeColor=none;fillColor=none;" parent="1" vertex="1">
          <mxGeometry x="312" y="813.7399999999999" width="40" height="30" as="geometry" />
        </mxCell>
        <mxCell id="a1OFb-E73zAF7D2NQ2un-272" value="&lt;font style=&quot;font-size: 8px;&quot;&gt;`e_5`&lt;/font&gt;" style="text;html=1;align=center;verticalAlign=middle;resizable=0;points=[];autosize=1;strokeColor=none;fillColor=none;" parent="1" vertex="1">
          <mxGeometry x="337.5" y="819.99" width="40" height="30" as="geometry" />
        </mxCell>
        <mxCell id="a1OFb-E73zAF7D2NQ2un-273" value="&lt;font style=&quot;font-size: 8px;&quot;&gt;`e_6`&lt;/font&gt;" style="text;html=1;align=center;verticalAlign=middle;resizable=0;points=[];autosize=1;strokeColor=none;fillColor=none;" parent="1" vertex="1">
          <mxGeometry x="327.5" y="838.1600000000001" width="40" height="30" as="geometry" />
        </mxCell>
        <mxCell id="a1OFb-E73zAF7D2NQ2un-276" value="" style="group" parent="1" vertex="1" connectable="0">
          <mxGeometry x="429.25" y="767.3199999999999" width="121.5" height="128.3300000000001" as="geometry" />
        </mxCell>
        <mxCell id="a1OFb-E73zAF7D2NQ2un-277" value="" style="ellipse;whiteSpace=wrap;html=1;aspect=fixed;fillColor=#d5e8d4;strokeColor=#82b366;" parent="a1OFb-E73zAF7D2NQ2un-276" vertex="1">
          <mxGeometry x="31" y="32" width="13" height="13" as="geometry" />
        </mxCell>
        <mxCell id="a1OFb-E73zAF7D2NQ2un-278" value="" style="ellipse;whiteSpace=wrap;html=1;aspect=fixed;fillColor=#fff2cc;strokeColor=#d6b656;" parent="a1OFb-E73zAF7D2NQ2un-276" vertex="1">
          <mxGeometry x="21" y="55.9900000000001" width="13" height="13" as="geometry" />
        </mxCell>
        <mxCell id="a1OFb-E73zAF7D2NQ2un-279" value="" style="ellipse;whiteSpace=wrap;html=1;aspect=fixed;fillColor=#fff2cc;strokeColor=#d6b656;" parent="a1OFb-E73zAF7D2NQ2un-276" vertex="1">
          <mxGeometry x="43" y="55.99000000000006" width="13" height="13" as="geometry" />
        </mxCell>
        <mxCell id="a1OFb-E73zAF7D2NQ2un-280" value="" style="ellipse;whiteSpace=wrap;html=1;aspect=fixed;fillColor=#d5e8d4;strokeColor=#82b366;" parent="a1OFb-E73zAF7D2NQ2un-276" vertex="1">
          <mxGeometry x="31" y="79.5000000000001" width="13" height="13" as="geometry" />
        </mxCell>
        <mxCell id="a1OFb-E73zAF7D2NQ2un-281" value="" style="endArrow=none;html=1;rounded=0;exitX=0;exitY=1;exitDx=0;exitDy=0;entryX=0.5;entryY=0;entryDx=0;entryDy=0;fillColor=#f8cecc;strokeColor=#b85450;" parent="a1OFb-E73zAF7D2NQ2un-276" source="a1OFb-E73zAF7D2NQ2un-277" target="a1OFb-E73zAF7D2NQ2un-278" edge="1">
          <mxGeometry width="50" height="50" relative="1" as="geometry">
            <mxPoint x="24" y="39.33000000000004" as="sourcePoint" />
            <mxPoint x="46" y="27.33000000000004" as="targetPoint" />
          </mxGeometry>
        </mxCell>
        <mxCell id="a1OFb-E73zAF7D2NQ2un-283" value="" style="endArrow=none;html=1;rounded=0;exitX=1;exitY=1;exitDx=0;exitDy=0;entryX=0.309;entryY=0.078;entryDx=0;entryDy=0;fillColor=#e1d5e7;strokeColor=#9673a6;entryPerimeter=0;" parent="a1OFb-E73zAF7D2NQ2un-276" source="a1OFb-E73zAF7D2NQ2un-277" target="a1OFb-E73zAF7D2NQ2un-279" edge="1">
          <mxGeometry width="50" height="50" relative="1" as="geometry">
            <mxPoint x="44" y="59.3300000000001" as="sourcePoint" />
            <mxPoint x="66" y="47.3300000000001" as="targetPoint" />
          </mxGeometry>
        </mxCell>
        <mxCell id="a1OFb-E73zAF7D2NQ2un-284" value="" style="endArrow=none;html=1;rounded=0;exitX=0.581;exitY=1.037;exitDx=0;exitDy=0;entryX=0.983;entryY=0.213;entryDx=0;entryDy=0;fillColor=#e1d5e7;strokeColor=#9673a6;exitPerimeter=0;entryPerimeter=0;" parent="a1OFb-E73zAF7D2NQ2un-276" source="a1OFb-E73zAF7D2NQ2un-279" target="a1OFb-E73zAF7D2NQ2un-280" edge="1">
          <mxGeometry width="50" height="50" relative="1" as="geometry">
            <mxPoint x="54" y="69.3300000000001" as="sourcePoint" />
            <mxPoint x="76" y="57.3300000000001" as="targetPoint" />
          </mxGeometry>
        </mxCell>
        <mxCell id="a1OFb-E73zAF7D2NQ2un-285" value="" style="ellipse;whiteSpace=wrap;html=1;aspect=fixed;fillColor=#fff2cc;strokeColor=#d6b656;" parent="a1OFb-E73zAF7D2NQ2un-276" vertex="1">
          <mxGeometry x="59.5" y="22.49" width="13" height="13" as="geometry" />
        </mxCell>
        <mxCell id="a1OFb-E73zAF7D2NQ2un-286" value="" style="ellipse;whiteSpace=wrap;html=1;aspect=fixed;fillColor=#fff2cc;strokeColor=#d6b656;" parent="a1OFb-E73zAF7D2NQ2un-276" vertex="1">
          <mxGeometry x="60.5" y="42.99000000000009" width="13" height="13" as="geometry" />
        </mxCell>
        <mxCell id="a1OFb-E73zAF7D2NQ2un-287" value="" style="ellipse;whiteSpace=wrap;html=1;aspect=fixed;fillColor=#d5e8d4;strokeColor=#82b366;" parent="a1OFb-E73zAF7D2NQ2un-276" vertex="1">
          <mxGeometry x="87.5" y="34.49000000000004" width="13" height="13" as="geometry" />
        </mxCell>
        <mxCell id="a1OFb-E73zAF7D2NQ2un-288" value="" style="curved=1;endArrow=none;html=1;rounded=0;entryX=-0.002;entryY=0.64;entryDx=0;entryDy=0;startFill=0;exitX=0.927;exitY=0.308;exitDx=0;exitDy=0;fillColor=#dae8fc;strokeColor=#6c8ebf;exitPerimeter=0;entryPerimeter=0;" parent="a1OFb-E73zAF7D2NQ2un-276" source="a1OFb-E73zAF7D2NQ2un-277" target="a1OFb-E73zAF7D2NQ2un-285" edge="1">
          <mxGeometry width="50" height="50" relative="1" as="geometry">
            <mxPoint x="65" y="68.3300000000001" as="sourcePoint" />
            <mxPoint x="-25" y="173.3300000000001" as="targetPoint" />
            <Array as="points" />
          </mxGeometry>
        </mxCell>
        <mxCell id="a1OFb-E73zAF7D2NQ2un-289" value="" style="curved=1;endArrow=none;html=1;rounded=0;entryX=0.087;entryY=0.352;entryDx=0;entryDy=0;startFill=0;entryPerimeter=0;exitX=0.903;exitY=0.69;exitDx=0;exitDy=0;fillColor=#ffe6cc;strokeColor=#d79b00;exitPerimeter=0;" parent="a1OFb-E73zAF7D2NQ2un-276" source="a1OFb-E73zAF7D2NQ2un-277" target="a1OFb-E73zAF7D2NQ2un-286" edge="1">
          <mxGeometry width="50" height="50" relative="1" as="geometry">
            <mxPoint x="45" y="13.330000000000041" as="sourcePoint" />
            <mxPoint x="95" y="13.330000000000041" as="targetPoint" />
            <Array as="points" />
          </mxGeometry>
        </mxCell>
        <mxCell id="a1OFb-E73zAF7D2NQ2un-290" value="" style="curved=1;endArrow=none;html=1;rounded=0;startFill=0;exitX=0.976;exitY=0.394;exitDx=0;exitDy=0;exitPerimeter=0;entryX=0;entryY=0.5;entryDx=0;entryDy=0;fillColor=#ffe6cc;strokeColor=#d79b00;" parent="a1OFb-E73zAF7D2NQ2un-276" source="a1OFb-E73zAF7D2NQ2un-286" target="a1OFb-E73zAF7D2NQ2un-287" edge="1">
          <mxGeometry width="50" height="50" relative="1" as="geometry">
            <mxPoint x="65" y="33.33000000000004" as="sourcePoint" />
            <mxPoint x="95" y="38.33000000000004" as="targetPoint" />
            <Array as="points" />
          </mxGeometry>
        </mxCell>
        <mxCell id="a1OFb-E73zAF7D2NQ2un-291" value="" style="curved=1;endArrow=none;html=1;rounded=0;entryX=0;entryY=0;entryDx=0;entryDy=0;startFill=0;exitX=0.988;exitY=0.736;exitDx=0;exitDy=0;fillColor=#dae8fc;strokeColor=#6c8ebf;exitPerimeter=0;" parent="a1OFb-E73zAF7D2NQ2un-276" source="a1OFb-E73zAF7D2NQ2un-285" target="a1OFb-E73zAF7D2NQ2un-287" edge="1">
          <mxGeometry width="50" height="50" relative="1" as="geometry">
            <mxPoint x="75" y="43.3300000000001" as="sourcePoint" />
            <mxPoint x="115" y="33.33000000000004" as="targetPoint" />
            <Array as="points" />
          </mxGeometry>
        </mxCell>
        <mxCell id="a1OFb-E73zAF7D2NQ2un-292" value="" style="curved=1;endArrow=none;html=1;rounded=0;entryX=0;entryY=1;entryDx=0;entryDy=0;startFill=0;exitX=1;exitY=0.5;exitDx=0;exitDy=0;strokeColor=#FFCCE6;" parent="a1OFb-E73zAF7D2NQ2un-276" source="a1OFb-E73zAF7D2NQ2un-280" target="a1OFb-E73zAF7D2NQ2un-295" edge="1">
          <mxGeometry width="50" height="50" relative="1" as="geometry">
            <mxPoint x="55" y="23.33000000000004" as="sourcePoint" />
            <mxPoint x="95" y="13.330000000000041" as="targetPoint" />
            <Array as="points" />
          </mxGeometry>
        </mxCell>
        <mxCell id="a1OFb-E73zAF7D2NQ2un-293" value="" style="ellipse;whiteSpace=wrap;html=1;aspect=fixed;fillColor=#fff2cc;strokeColor=#d6b656;" parent="a1OFb-E73zAF7D2NQ2un-276" vertex="1">
          <mxGeometry x="59.5" y="89.5000000000001" width="13" height="13" as="geometry" />
        </mxCell>
        <mxCell id="a1OFb-E73zAF7D2NQ2un-294" value="" style="ellipse;whiteSpace=wrap;html=1;aspect=fixed;fillColor=#d5e8d4;strokeColor=#82b366;" parent="a1OFb-E73zAF7D2NQ2un-276" vertex="1">
          <mxGeometry x="87.5" y="79.5000000000001" width="13" height="13" as="geometry" />
        </mxCell>
        <mxCell id="a1OFb-E73zAF7D2NQ2un-295" value="" style="ellipse;whiteSpace=wrap;html=1;aspect=fixed;fillColor=#fff2cc;strokeColor=#d6b656;" parent="a1OFb-E73zAF7D2NQ2un-276" vertex="1">
          <mxGeometry x="68.5" y="62.5000000000001" width="13" height="13" as="geometry" />
        </mxCell>
        <mxCell id="a1OFb-E73zAF7D2NQ2un-296" value="" style="curved=1;endArrow=none;html=1;rounded=0;entryX=0.5;entryY=1;entryDx=0;entryDy=0;startFill=0;exitX=1;exitY=0;exitDx=0;exitDy=0;strokeColor=#FFCCE6;" parent="a1OFb-E73zAF7D2NQ2un-276" source="a1OFb-E73zAF7D2NQ2un-295" target="a1OFb-E73zAF7D2NQ2un-287" edge="1">
          <mxGeometry width="50" height="50" relative="1" as="geometry">
            <mxPoint x="85" y="58.3300000000001" as="sourcePoint" />
            <mxPoint x="105" y="48.3300000000001" as="targetPoint" />
            <Array as="points" />
          </mxGeometry>
        </mxCell>
        <mxCell id="a1OFb-E73zAF7D2NQ2un-297" value="" style="endArrow=none;html=1;rounded=0;exitX=1;exitY=1;exitDx=0;exitDy=0;strokeColor=#97D077;entryX=0;entryY=0.5;entryDx=0;entryDy=0;" parent="a1OFb-E73zAF7D2NQ2un-276" source="a1OFb-E73zAF7D2NQ2un-280" target="a1OFb-E73zAF7D2NQ2un-293" edge="1">
          <mxGeometry width="50" height="50" relative="1" as="geometry">
            <mxPoint x="-45" y="28.33000000000004" as="sourcePoint" />
            <mxPoint x="60" y="102.68000000000006" as="targetPoint" />
          </mxGeometry>
        </mxCell>
        <mxCell id="a1OFb-E73zAF7D2NQ2un-298" value="" style="endArrow=none;html=1;rounded=0;exitX=1;exitY=0.5;exitDx=0;exitDy=0;entryX=0.045;entryY=0.767;entryDx=0;entryDy=0;strokeColor=#97D077;entryPerimeter=0;" parent="a1OFb-E73zAF7D2NQ2un-276" source="a1OFb-E73zAF7D2NQ2un-293" target="a1OFb-E73zAF7D2NQ2un-294" edge="1">
          <mxGeometry width="50" height="50" relative="1" as="geometry">
            <mxPoint x="70" y="88.3300000000001" as="sourcePoint" />
            <mxPoint x="70" y="98.3300000000001" as="targetPoint" />
          </mxGeometry>
        </mxCell>
        <mxCell id="a1OFb-E73zAF7D2NQ2un-308" value="&lt;font style=&quot;font-size: 7px;&quot;&gt;`e_6`&lt;/font&gt;" style="text;html=1;align=center;verticalAlign=middle;resizable=0;points=[];autosize=1;strokeColor=none;fillColor=none;" parent="a1OFb-E73zAF7D2NQ2un-276" vertex="1">
          <mxGeometry x="46" y="76.5000000000001" width="40" height="30" as="geometry" />
        </mxCell>
        <mxCell id="a1OFb-E73zAF7D2NQ2un-282" value="" style="endArrow=none;html=1;rounded=0;entryX=0;entryY=0;entryDx=0;entryDy=0;fillColor=#f8cecc;strokeColor=#b85450;exitX=0.5;exitY=1;exitDx=0;exitDy=0;" parent="a1OFb-E73zAF7D2NQ2un-276" source="a1OFb-E73zAF7D2NQ2un-278" target="a1OFb-E73zAF7D2NQ2un-280" edge="1">
          <mxGeometry width="50" height="50" relative="1" as="geometry">
            <mxPoint x="34" y="49.330000000000155" as="sourcePoint" />
            <mxPoint x="56" y="37.33000000000004" as="targetPoint" />
          </mxGeometry>
        </mxCell>
        <mxCell id="a1OFb-E73zAF7D2NQ2un-302" value="&lt;font style=&quot;font-size: 7px;&quot;&gt;`v_1`&lt;/font&gt;" style="text;html=1;align=center;verticalAlign=middle;resizable=0;points=[];autosize=1;strokeColor=none;fillColor=none;" parent="a1OFb-E73zAF7D2NQ2un-276" vertex="1">
          <mxGeometry x="17" y="19.49000000000001" width="40" height="30" as="geometry" />
        </mxCell>
        <mxCell id="a1OFb-E73zAF7D2NQ2un-301" value="&lt;font style=&quot;font-size: 7px;&quot;&gt;`v_2`&lt;/font&gt;" style="text;html=1;align=center;verticalAlign=middle;resizable=0;points=[];autosize=1;strokeColor=none;fillColor=none;" parent="a1OFb-E73zAF7D2NQ2un-276" vertex="1">
          <mxGeometry x="73.5" y="22.49000000000001" width="40" height="30" as="geometry" />
        </mxCell>
        <mxCell id="a1OFb-E73zAF7D2NQ2un-306" value="&lt;font style=&quot;font-size: 7px;&quot;&gt;`v_3`&lt;/font&gt;" style="text;html=1;align=center;verticalAlign=middle;resizable=0;points=[];autosize=1;strokeColor=none;fillColor=none;" parent="a1OFb-E73zAF7D2NQ2un-276" vertex="1">
          <mxGeometry x="16" y="68.99000000000012" width="40" height="30" as="geometry" />
        </mxCell>
        <mxCell id="a1OFb-E73zAF7D2NQ2un-307" value="&lt;font style=&quot;font-size: 7px;&quot;&gt;`v_4`&lt;/font&gt;" style="text;html=1;align=center;verticalAlign=middle;resizable=0;points=[];autosize=1;strokeColor=none;fillColor=none;" parent="a1OFb-E73zAF7D2NQ2un-276" vertex="1">
          <mxGeometry x="72.5" y="68.99000000000012" width="40" height="30" as="geometry" />
        </mxCell>
        <mxCell id="a1OFb-E73zAF7D2NQ2un-303" value="&lt;font style=&quot;font-size: 7px;&quot;&gt;`e_5`&lt;/font&gt;" style="text;html=1;align=center;verticalAlign=middle;resizable=0;points=[];autosize=1;strokeColor=none;fillColor=none;" parent="a1OFb-E73zAF7D2NQ2un-276" vertex="1">
          <mxGeometry x="55" y="49.500000000000114" width="40" height="30" as="geometry" />
        </mxCell>
        <mxCell id="a1OFb-E73zAF7D2NQ2un-300" value="&lt;font style=&quot;font-size: 7px;&quot;&gt;`e_1`&lt;/font&gt;" style="text;html=1;align=center;verticalAlign=middle;resizable=0;points=[];autosize=1;strokeColor=none;fillColor=none;" parent="a1OFb-E73zAF7D2NQ2un-276" vertex="1">
          <mxGeometry x="46" y="9.490000000000009" width="40" height="30" as="geometry" />
        </mxCell>
        <mxCell id="a1OFb-E73zAF7D2NQ2un-299" value="&lt;font style=&quot;font-size: 7px;&quot;&gt;`e_2`&lt;/font&gt;" style="text;html=1;align=center;verticalAlign=middle;resizable=0;points=[];autosize=1;strokeColor=none;fillColor=none;" parent="a1OFb-E73zAF7D2NQ2un-276" vertex="1">
          <mxGeometry x="47" y="31" width="40" height="30" as="geometry" />
        </mxCell>
        <mxCell id="a1OFb-E73zAF7D2NQ2un-304" value="&lt;font style=&quot;font-size: 7px;&quot;&gt;`e_4`&lt;/font&gt;" style="text;html=1;align=center;verticalAlign=middle;resizable=0;points=[];autosize=1;strokeColor=none;fillColor=none;" parent="a1OFb-E73zAF7D2NQ2un-276" vertex="1">
          <mxGeometry x="29" y="43.99000000000001" width="40" height="30" as="geometry" />
        </mxCell>
        <mxCell id="a1OFb-E73zAF7D2NQ2un-305" value="&lt;font style=&quot;font-size: 7px;&quot;&gt;`e_3`&lt;/font&gt;" style="text;html=1;align=center;verticalAlign=middle;resizable=0;points=[];autosize=1;strokeColor=none;fillColor=none;" parent="a1OFb-E73zAF7D2NQ2un-276" vertex="1">
          <mxGeometry x="7.5" y="43.99000000000012" width="40" height="30" as="geometry" />
        </mxCell>
        <mxCell id="a1OFb-E73zAF7D2NQ2un-310" value="&lt;font style=&quot;font-size: 9px;&quot; face=&quot;Linux Libertine&quot;&gt;A multigraph `G=(V,E)`&lt;/font&gt;" style="edgeLabel;html=1;align=center;verticalAlign=middle;resizable=0;points=[];labelBackgroundColor=none;" parent="1" vertex="1" connectable="0">
          <mxGeometry x="356.2476190476191" y="888.4899999999999" as="geometry">
            <mxPoint x="-4" y="-6" as="offset" />
          </mxGeometry>
        </mxCell>
        <mxCell id="a1OFb-E73zAF7D2NQ2un-311" value="&lt;font style=&quot;font-size: 9px;&quot; face=&quot;Linux Libertine&quot;&gt;Subdivision graph `G_S`&lt;/font&gt;" style="edgeLabel;html=1;align=center;verticalAlign=middle;resizable=0;points=[];labelBackgroundColor=none;" parent="1" vertex="1" connectable="0">
          <mxGeometry x="499.2476190476191" y="882.55" as="geometry" />
        </mxCell>
        <mxCell id="a1OFb-E73zAF7D2NQ2un-312" value="" style="endArrow=classic;html=1;rounded=0;" parent="1" edge="1">
          <mxGeometry width="50" height="50" relative="1" as="geometry">
            <mxPoint x="597.5" y="943.73" as="sourcePoint" />
            <mxPoint x="517.5" y="943.73" as="targetPoint" />
          </mxGeometry>
        </mxCell>
        <mxCell id="a1OFb-E73zAF7D2NQ2un-362" value="" style="group" parent="1" vertex="1" connectable="0">
          <mxGeometry x="428" y="888.49" width="87" height="120.91000000000008" as="geometry" />
        </mxCell>
        <mxCell id="a1OFb-E73zAF7D2NQ2un-363" value="&lt;font face=&quot;Linux Libertine&quot; style=&quot;font-size: 7px;&quot;&gt;`k`&lt;/font&gt;" style="text;html=1;align=center;verticalAlign=middle;resizable=0;points=[];autosize=1;strokeColor=none;fillColor=none;" parent="a1OFb-E73zAF7D2NQ2un-362" vertex="1">
          <mxGeometry x="32" width="30" height="30" as="geometry" />
        </mxCell>
        <mxCell id="a1OFb-E73zAF7D2NQ2un-364" value="&lt;font face=&quot;Helvetica&quot; style=&quot;font-size: 7px;&quot;&gt;`e_4`&lt;/font&gt;" style="text;html=1;align=center;verticalAlign=middle;resizable=0;points=[];autosize=1;strokeColor=none;fillColor=none;" parent="a1OFb-E73zAF7D2NQ2un-362" vertex="1">
          <mxGeometry y="40.91000000000008" width="40" height="30" as="geometry" />
        </mxCell>
        <mxCell id="a1OFb-E73zAF7D2NQ2un-365" value="&lt;font face=&quot;Helvetica&quot; style=&quot;font-size: 7px;&quot;&gt;`e_1`&lt;/font&gt;" style="text;html=1;align=center;verticalAlign=middle;resizable=0;points=[];autosize=1;strokeColor=none;fillColor=none;" parent="a1OFb-E73zAF7D2NQ2un-362" vertex="1">
          <mxGeometry y="10.910000000000025" width="40" height="30" as="geometry" />
        </mxCell>
        <mxCell id="a1OFb-E73zAF7D2NQ2un-366" value="&lt;font face=&quot;Helvetica&quot; style=&quot;font-size: 7px;&quot;&gt;`e_2`&lt;/font&gt;" style="text;html=1;align=center;verticalAlign=middle;resizable=0;points=[];autosize=1;strokeColor=none;fillColor=none;" parent="a1OFb-E73zAF7D2NQ2un-362" vertex="1">
          <mxGeometry y="20.910000000000025" width="40" height="30" as="geometry" />
        </mxCell>
        <mxCell id="a1OFb-E73zAF7D2NQ2un-367" value="&lt;font face=&quot;Helvetica&quot; style=&quot;font-size: 7px;&quot;&gt;`e_3`&lt;/font&gt;" style="text;html=1;align=center;verticalAlign=middle;resizable=0;points=[];autosize=1;strokeColor=none;fillColor=none;" parent="a1OFb-E73zAF7D2NQ2un-362" vertex="1">
          <mxGeometry y="30" width="40" height="30" as="geometry" />
        </mxCell>
        <mxCell id="a1OFb-E73zAF7D2NQ2un-368" value="&lt;font face=&quot;Helvetica&quot; style=&quot;font-size: 7px;&quot;&gt;`e_5`&lt;/font&gt;" style="text;html=1;align=center;verticalAlign=middle;resizable=0;points=[];autosize=1;strokeColor=none;fillColor=none;" parent="a1OFb-E73zAF7D2NQ2un-362" vertex="1">
          <mxGeometry y="50.91000000000008" width="40" height="30" as="geometry" />
        </mxCell>
        <mxCell id="a1OFb-E73zAF7D2NQ2un-369" value="&lt;font face=&quot;Helvetica&quot; style=&quot;font-size: 7px;&quot;&gt;`e_6`&lt;/font&gt;" style="text;html=1;align=center;verticalAlign=middle;resizable=0;points=[];autosize=1;strokeColor=none;fillColor=none;" parent="a1OFb-E73zAF7D2NQ2un-362" vertex="1">
          <mxGeometry y="60.00000000000023" width="40" height="30" as="geometry" />
        </mxCell>
        <mxCell id="a1OFb-E73zAF7D2NQ2un-370" value="" style="whiteSpace=wrap;html=1;aspect=fixed;fillColor=#97D077;" parent="a1OFb-E73zAF7D2NQ2un-362" vertex="1">
          <mxGeometry x="28" y="24.660000000000082" width="10" height="10" as="geometry" />
        </mxCell>
        <mxCell id="a1OFb-E73zAF7D2NQ2un-371" value="" style="whiteSpace=wrap;html=1;aspect=fixed;fillColor=#d5e8d4;strokeColor=#82b366;" parent="a1OFb-E73zAF7D2NQ2un-362" vertex="1">
          <mxGeometry x="38" y="24.660000000000025" width="10" height="10" as="geometry" />
        </mxCell>
        <mxCell id="a1OFb-E73zAF7D2NQ2un-372" value="" style="whiteSpace=wrap;html=1;aspect=fixed;fillColor=#d5e8d4;strokeColor=#82b366;direction=south;" parent="a1OFb-E73zAF7D2NQ2un-362" vertex="1">
          <mxGeometry x="28" y="34.660000000000025" width="10" height="10" as="geometry" />
        </mxCell>
        <mxCell id="a1OFb-E73zAF7D2NQ2un-373" value="" style="whiteSpace=wrap;html=1;aspect=fixed;fillColor=#97D077;" parent="a1OFb-E73zAF7D2NQ2un-362" vertex="1">
          <mxGeometry x="38" y="34.660000000000025" width="10" height="10" as="geometry" />
        </mxCell>
        <mxCell id="a1OFb-E73zAF7D2NQ2un-374" value="" style="whiteSpace=wrap;html=1;aspect=fixed;fillColor=#97D077;" parent="a1OFb-E73zAF7D2NQ2un-362" vertex="1">
          <mxGeometry x="28" y="44.66000000000008" width="10" height="10" as="geometry" />
        </mxCell>
        <mxCell id="a1OFb-E73zAF7D2NQ2un-375" value="" style="whiteSpace=wrap;html=1;aspect=fixed;fillColor=#d5e8d4;strokeColor=#82b366;" parent="a1OFb-E73zAF7D2NQ2un-362" vertex="1">
          <mxGeometry x="38" y="44.66000000000008" width="10" height="10" as="geometry" />
        </mxCell>
        <mxCell id="a1OFb-E73zAF7D2NQ2un-376" value="" style="whiteSpace=wrap;html=1;aspect=fixed;fillColor=#d5e8d4;strokeColor=#82b366;" parent="a1OFb-E73zAF7D2NQ2un-362" vertex="1">
          <mxGeometry x="28" y="54.66000000000008" width="10" height="10" as="geometry" />
        </mxCell>
        <mxCell id="a1OFb-E73zAF7D2NQ2un-377" value="" style="whiteSpace=wrap;html=1;aspect=fixed;fillColor=#97D077;" parent="a1OFb-E73zAF7D2NQ2un-362" vertex="1">
          <mxGeometry x="38" y="54.66000000000008" width="10" height="10" as="geometry" />
        </mxCell>
        <mxCell id="a1OFb-E73zAF7D2NQ2un-378" value="" style="whiteSpace=wrap;html=1;aspect=fixed;fillColor=#97D077;" parent="a1OFb-E73zAF7D2NQ2un-362" vertex="1">
          <mxGeometry x="28" y="64.66000000000008" width="10" height="10" as="geometry" />
        </mxCell>
        <mxCell id="a1OFb-E73zAF7D2NQ2un-379" value="" style="whiteSpace=wrap;html=1;aspect=fixed;fillColor=#d5e8d4;strokeColor=#82b366;" parent="a1OFb-E73zAF7D2NQ2un-362" vertex="1">
          <mxGeometry x="38" y="64.66000000000008" width="10" height="10" as="geometry" />
        </mxCell>
        <mxCell id="a1OFb-E73zAF7D2NQ2un-380" value="" style="whiteSpace=wrap;html=1;aspect=fixed;fillColor=#d5e8d4;strokeColor=#82b366;" parent="a1OFb-E73zAF7D2NQ2un-362" vertex="1">
          <mxGeometry x="28" y="74.66000000000008" width="10" height="10" as="geometry" />
        </mxCell>
        <mxCell id="a1OFb-E73zAF7D2NQ2un-381" value="" style="whiteSpace=wrap;html=1;aspect=fixed;fillColor=#97D077;" parent="a1OFb-E73zAF7D2NQ2un-362" vertex="1">
          <mxGeometry x="38" y="74.66000000000008" width="10" height="10" as="geometry" />
        </mxCell>
        <mxCell id="a1OFb-E73zAF7D2NQ2un-382" value="" style="whiteSpace=wrap;html=1;aspect=fixed;fillColor=#97D077;" parent="a1OFb-E73zAF7D2NQ2un-362" vertex="1">
          <mxGeometry x="48" y="24.660000000000082" width="10" height="10" as="geometry" />
        </mxCell>
        <mxCell id="a1OFb-E73zAF7D2NQ2un-383" value="" style="whiteSpace=wrap;html=1;aspect=fixed;fillColor=#d5e8d4;strokeColor=#82b366;" parent="a1OFb-E73zAF7D2NQ2un-362" vertex="1">
          <mxGeometry x="58" y="24.660000000000082" width="10" height="10" as="geometry" />
        </mxCell>
        <mxCell id="a1OFb-E73zAF7D2NQ2un-384" value="" style="whiteSpace=wrap;html=1;aspect=fixed;fillColor=#d5e8d4;strokeColor=#82b366;" parent="a1OFb-E73zAF7D2NQ2un-362" vertex="1">
          <mxGeometry x="48" y="34.660000000000025" width="10" height="10" as="geometry" />
        </mxCell>
        <mxCell id="a1OFb-E73zAF7D2NQ2un-385" value="" style="whiteSpace=wrap;html=1;aspect=fixed;fillColor=#97D077;" parent="a1OFb-E73zAF7D2NQ2un-362" vertex="1">
          <mxGeometry x="58" y="34.660000000000025" width="10" height="10" as="geometry" />
        </mxCell>
        <mxCell id="a1OFb-E73zAF7D2NQ2un-386" value="" style="whiteSpace=wrap;html=1;aspect=fixed;fillColor=#97D077;" parent="a1OFb-E73zAF7D2NQ2un-362" vertex="1">
          <mxGeometry x="48" y="44.66000000000008" width="10" height="10" as="geometry" />
        </mxCell>
        <mxCell id="a1OFb-E73zAF7D2NQ2un-387" value="" style="whiteSpace=wrap;html=1;aspect=fixed;fillColor=#d5e8d4;strokeColor=#82b366;" parent="a1OFb-E73zAF7D2NQ2un-362" vertex="1">
          <mxGeometry x="58" y="44.66000000000008" width="10" height="10" as="geometry" />
        </mxCell>
        <mxCell id="a1OFb-E73zAF7D2NQ2un-388" value="" style="whiteSpace=wrap;html=1;aspect=fixed;fillColor=#d5e8d4;strokeColor=#82b366;" parent="a1OFb-E73zAF7D2NQ2un-362" vertex="1">
          <mxGeometry x="48" y="54.66000000000008" width="10" height="10" as="geometry" />
        </mxCell>
        <mxCell id="a1OFb-E73zAF7D2NQ2un-389" value="" style="whiteSpace=wrap;html=1;aspect=fixed;fillColor=#97D077;" parent="a1OFb-E73zAF7D2NQ2un-362" vertex="1">
          <mxGeometry x="58" y="54.66000000000008" width="10" height="10" as="geometry" />
        </mxCell>
        <mxCell id="a1OFb-E73zAF7D2NQ2un-390" value="" style="whiteSpace=wrap;html=1;aspect=fixed;fillColor=#97D077;" parent="a1OFb-E73zAF7D2NQ2un-362" vertex="1">
          <mxGeometry x="48" y="64.66000000000008" width="10" height="10" as="geometry" />
        </mxCell>
        <mxCell id="a1OFb-E73zAF7D2NQ2un-391" value="" style="whiteSpace=wrap;html=1;aspect=fixed;fillColor=#d5e8d4;strokeColor=#82b366;" parent="a1OFb-E73zAF7D2NQ2un-362" vertex="1">
          <mxGeometry x="58" y="64.66000000000008" width="10" height="10" as="geometry" />
        </mxCell>
        <mxCell id="a1OFb-E73zAF7D2NQ2un-392" value="" style="whiteSpace=wrap;html=1;aspect=fixed;fillColor=#d5e8d4;strokeColor=#82b366;" parent="a1OFb-E73zAF7D2NQ2un-362" vertex="1">
          <mxGeometry x="48" y="74.66000000000008" width="10" height="10" as="geometry" />
        </mxCell>
        <mxCell id="a1OFb-E73zAF7D2NQ2un-393" value="" style="whiteSpace=wrap;html=1;aspect=fixed;fillColor=#97D077;" parent="a1OFb-E73zAF7D2NQ2un-362" vertex="1">
          <mxGeometry x="58" y="74.66000000000008" width="10" height="10" as="geometry" />
        </mxCell>
        <mxCell id="a1OFb-E73zAF7D2NQ2un-394" value="&lt;div&gt;&lt;font style=&quot;font-size: 9px;&quot; face=&quot;Linux Libertine&quot;&gt;Edge&amp;nbsp;&lt;/font&gt;&lt;span style=&quot;font-size: 9px; font-family: &amp;quot;Linux Libertine&amp;quot;; background-color: transparent; color: light-dark(rgb(0, 0, 0), rgb(255, 255, 255));&quot;&gt;embedding&lt;/span&gt;&lt;/div&gt;" style="text;html=1;align=center;verticalAlign=middle;resizable=0;points=[];autosize=1;strokeColor=none;fillColor=none;" parent="a1OFb-E73zAF7D2NQ2un-362" vertex="1">
          <mxGeometry x="7" y="81.91000000000008" width="80" height="30" as="geometry" />
        </mxCell>
        <mxCell id="a1OFb-E73zAF7D2NQ2un-395" value="&lt;font style=&quot;font-size: 9px;&quot; face=&quot;Linux Libertine&quot;&gt;`k`-truncated SVD&lt;/font&gt;" style="edgeLabel;html=1;align=center;verticalAlign=middle;resizable=0;points=[];rotation=0;labelBackgroundColor=none;" parent="1" vertex="1" connectable="0">
          <mxGeometry x="554.9976190476191" y="957.1300000000002" as="geometry">
            <mxPoint x="4" y="-3" as="offset" />
          </mxGeometry>
        </mxCell>
        <mxCell id="a1OFb-E73zAF7D2NQ2un-398" value="" style="endArrow=classic;html=1;rounded=0;" parent="1" edge="1">
          <mxGeometry width="50" height="50" relative="1" as="geometry">
            <mxPoint x="401.25" y="831.41" as="sourcePoint" />
            <mxPoint x="425.25" y="831.41" as="targetPoint" />
          </mxGeometry>
        </mxCell>
        <mxCell id="a1OFb-E73zAF7D2NQ2un-401" value="&lt;div&gt;&lt;font style=&quot;font-size: 9px;&quot; face=&quot;Linux Libertine&quot;&gt;Edge&amp;nbsp;&lt;/font&gt;&lt;span style=&quot;font-size: 9px; font-family: &amp;quot;Linux Libertine&amp;quot;; background-color: transparent; color: light-dark(rgb(0, 0, 0), rgb(255, 255, 255));&quot;&gt;classification&lt;/span&gt;&lt;/div&gt;" style="text;html=1;align=center;verticalAlign=middle;resizable=0;points=[];autosize=1;strokeColor=none;fillColor=none;" parent="1" vertex="1">
          <mxGeometry x="300.13" y="969.27" width="90" height="30" as="geometry" />
        </mxCell>
        <mxCell id="a1OFb-E73zAF7D2NQ2un-402" value="&lt;font style=&quot;font-size: 8px;&quot; face=&quot;Linux Libertine&quot;&gt;MLP&lt;/font&gt;" style="rounded=0;whiteSpace=wrap;html=1;fillColor=#D8D8D8;" parent="1" vertex="1">
          <mxGeometry x="324.13" y="916.41" width="40" height="17.18" as="geometry" />
        </mxCell>
        <mxCell id="a1OFb-E73zAF7D2NQ2un-405" value="" style="group" parent="1" vertex="1" connectable="0">
          <mxGeometry x="597.5" y="887.13" width="152.5" height="113.77999999999997" as="geometry" />
        </mxCell>
        <mxCell id="a1OFb-E73zAF7D2NQ2un-313" value="" style="group" parent="a1OFb-E73zAF7D2NQ2un-405" vertex="1" connectable="0">
          <mxGeometry width="103" height="91.00000000000017" as="geometry" />
        </mxCell>
        <mxCell id="a1OFb-E73zAF7D2NQ2un-314" value="&lt;font face=&quot;Helvetica&quot; style=&quot;font-size: 7px;&quot;&gt;`e_2`&lt;/font&gt;" style="text;html=1;align=center;verticalAlign=middle;resizable=0;points=[];autosize=1;strokeColor=none;fillColor=none;" parent="a1OFb-E73zAF7D2NQ2un-313" vertex="1">
          <mxGeometry x="23" width="40" height="30" as="geometry" />
        </mxCell>
        <mxCell id="a1OFb-E73zAF7D2NQ2un-315" value="&lt;font face=&quot;Helvetica&quot; style=&quot;font-size: 7px;&quot;&gt;`e_4`&lt;/font&gt;" style="text;html=1;align=center;verticalAlign=middle;resizable=0;points=[];autosize=1;strokeColor=none;fillColor=none;" parent="a1OFb-E73zAF7D2NQ2un-313" vertex="1">
          <mxGeometry y="40.91000000000014" width="40" height="30" as="geometry" />
        </mxCell>
        <mxCell id="a1OFb-E73zAF7D2NQ2un-316" value="&lt;font face=&quot;Helvetica&quot; style=&quot;font-size: 7px;&quot;&gt;`e_1`&lt;/font&gt;" style="text;html=1;align=center;verticalAlign=middle;resizable=0;points=[];autosize=1;strokeColor=none;fillColor=none;" parent="a1OFb-E73zAF7D2NQ2un-313" vertex="1">
          <mxGeometry y="10.910000000000025" width="40" height="30" as="geometry" />
        </mxCell>
        <mxCell id="a1OFb-E73zAF7D2NQ2un-317" value="&lt;font face=&quot;Helvetica&quot; style=&quot;font-size: 7px;&quot;&gt;`e_2`&lt;/font&gt;" style="text;html=1;align=center;verticalAlign=middle;resizable=0;points=[];autosize=1;strokeColor=none;fillColor=none;" parent="a1OFb-E73zAF7D2NQ2un-313" vertex="1">
          <mxGeometry y="19.610000000000014" width="40" height="30" as="geometry" />
        </mxCell>
        <mxCell id="a1OFb-E73zAF7D2NQ2un-318" value="&lt;font face=&quot;Helvetica&quot; style=&quot;font-size: 7px;&quot;&gt;`e_3`&lt;/font&gt;" style="text;html=1;align=center;verticalAlign=middle;resizable=0;points=[];autosize=1;strokeColor=none;fillColor=none;" parent="a1OFb-E73zAF7D2NQ2un-313" vertex="1">
          <mxGeometry y="30.000000000000057" width="40" height="30" as="geometry" />
        </mxCell>
        <mxCell id="a1OFb-E73zAF7D2NQ2un-319" value="&lt;font face=&quot;Helvetica&quot; style=&quot;font-size: 7px;&quot;&gt;`e_5`&lt;/font&gt;" style="text;html=1;align=center;verticalAlign=middle;resizable=0;points=[];autosize=1;strokeColor=none;fillColor=none;" parent="a1OFb-E73zAF7D2NQ2un-313" vertex="1">
          <mxGeometry y="50.61000000000013" width="40" height="30" as="geometry" />
        </mxCell>
        <mxCell id="a1OFb-E73zAF7D2NQ2un-320" value="&lt;font face=&quot;Helvetica&quot; style=&quot;font-size: 7px;&quot;&gt;`e_6`&lt;/font&gt;" style="text;html=1;align=center;verticalAlign=middle;resizable=0;points=[];autosize=1;strokeColor=none;fillColor=none;" parent="a1OFb-E73zAF7D2NQ2un-313" vertex="1">
          <mxGeometry y="61.00000000000017" width="40" height="30" as="geometry" />
        </mxCell>
        <mxCell id="a1OFb-E73zAF7D2NQ2un-321" value="" style="whiteSpace=wrap;html=1;aspect=fixed;fillColor=#FFD966;" parent="a1OFb-E73zAF7D2NQ2un-313" vertex="1">
          <mxGeometry x="28" y="24.66000000000014" width="10" height="10" as="geometry" />
        </mxCell>
        <mxCell id="a1OFb-E73zAF7D2NQ2un-322" value="" style="whiteSpace=wrap;html=1;aspect=fixed;fillColor=#fff2cc;strokeColor=#d6b656;" parent="a1OFb-E73zAF7D2NQ2un-313" vertex="1">
          <mxGeometry x="38" y="24.660000000000025" width="10" height="10" as="geometry" />
        </mxCell>
        <mxCell id="a1OFb-E73zAF7D2NQ2un-323" value="" style="whiteSpace=wrap;html=1;aspect=fixed;fillColor=#fff2cc;strokeColor=#d6b656;direction=south;" parent="a1OFb-E73zAF7D2NQ2un-313" vertex="1">
          <mxGeometry x="28" y="34.66000000000014" width="10" height="10" as="geometry" />
        </mxCell>
        <mxCell id="a1OFb-E73zAF7D2NQ2un-324" value="" style="whiteSpace=wrap;html=1;aspect=fixed;fillColor=#FFD966;" parent="a1OFb-E73zAF7D2NQ2un-313" vertex="1">
          <mxGeometry x="38" y="34.66000000000014" width="10" height="10" as="geometry" />
        </mxCell>
        <mxCell id="a1OFb-E73zAF7D2NQ2un-325" value="" style="whiteSpace=wrap;html=1;aspect=fixed;fillColor=#FFD966;" parent="a1OFb-E73zAF7D2NQ2un-313" vertex="1">
          <mxGeometry x="28" y="44.66000000000014" width="10" height="10" as="geometry" />
        </mxCell>
        <mxCell id="a1OFb-E73zAF7D2NQ2un-326" value="" style="whiteSpace=wrap;html=1;aspect=fixed;fillColor=#fff2cc;strokeColor=#d6b656;" parent="a1OFb-E73zAF7D2NQ2un-313" vertex="1">
          <mxGeometry x="38" y="44.66000000000014" width="10" height="10" as="geometry" />
        </mxCell>
        <mxCell id="a1OFb-E73zAF7D2NQ2un-327" value="" style="whiteSpace=wrap;html=1;aspect=fixed;fillColor=#fff2cc;strokeColor=#d6b656;" parent="a1OFb-E73zAF7D2NQ2un-313" vertex="1">
          <mxGeometry x="28" y="54.66000000000014" width="10" height="10" as="geometry" />
        </mxCell>
        <mxCell id="a1OFb-E73zAF7D2NQ2un-328" value="" style="whiteSpace=wrap;html=1;aspect=fixed;fillColor=#FFD966;" parent="a1OFb-E73zAF7D2NQ2un-313" vertex="1">
          <mxGeometry x="38" y="54.66000000000014" width="10" height="10" as="geometry" />
        </mxCell>
        <mxCell id="a1OFb-E73zAF7D2NQ2un-329" value="" style="whiteSpace=wrap;html=1;aspect=fixed;fillColor=#FFD966;" parent="a1OFb-E73zAF7D2NQ2un-313" vertex="1">
          <mxGeometry x="28" y="64.66000000000014" width="10" height="10" as="geometry" />
        </mxCell>
        <mxCell id="a1OFb-E73zAF7D2NQ2un-330" value="" style="whiteSpace=wrap;html=1;aspect=fixed;fillColor=#fff2cc;strokeColor=#d6b656;" parent="a1OFb-E73zAF7D2NQ2un-313" vertex="1">
          <mxGeometry x="38" y="64.66000000000014" width="10" height="10" as="geometry" />
        </mxCell>
        <mxCell id="a1OFb-E73zAF7D2NQ2un-331" value="" style="whiteSpace=wrap;html=1;aspect=fixed;fillColor=#fff2cc;strokeColor=#d6b656;" parent="a1OFb-E73zAF7D2NQ2un-313" vertex="1">
          <mxGeometry x="28" y="74.66000000000014" width="10" height="10" as="geometry" />
        </mxCell>
        <mxCell id="a1OFb-E73zAF7D2NQ2un-332" value="" style="whiteSpace=wrap;html=1;aspect=fixed;fillColor=#FFD966;" parent="a1OFb-E73zAF7D2NQ2un-313" vertex="1">
          <mxGeometry x="38" y="74.66000000000014" width="10" height="10" as="geometry" />
        </mxCell>
        <mxCell id="a1OFb-E73zAF7D2NQ2un-333" value="" style="whiteSpace=wrap;html=1;aspect=fixed;fillColor=#FFD966;" parent="a1OFb-E73zAF7D2NQ2un-313" vertex="1">
          <mxGeometry x="48" y="24.66000000000014" width="10" height="10" as="geometry" />
        </mxCell>
        <mxCell id="a1OFb-E73zAF7D2NQ2un-334" value="" style="whiteSpace=wrap;html=1;aspect=fixed;fillColor=#fff2cc;strokeColor=#d6b656;" parent="a1OFb-E73zAF7D2NQ2un-313" vertex="1">
          <mxGeometry x="58" y="24.66000000000014" width="10" height="10" as="geometry" />
        </mxCell>
        <mxCell id="a1OFb-E73zAF7D2NQ2un-335" value="" style="whiteSpace=wrap;html=1;aspect=fixed;fillColor=#fff2cc;strokeColor=#d6b656;" parent="a1OFb-E73zAF7D2NQ2un-313" vertex="1">
          <mxGeometry x="48" y="34.66000000000014" width="10" height="10" as="geometry" />
        </mxCell>
        <mxCell id="a1OFb-E73zAF7D2NQ2un-336" value="" style="whiteSpace=wrap;html=1;aspect=fixed;fillColor=#FFD966;" parent="a1OFb-E73zAF7D2NQ2un-313" vertex="1">
          <mxGeometry x="58" y="34.66000000000014" width="10" height="10" as="geometry" />
        </mxCell>
        <mxCell id="a1OFb-E73zAF7D2NQ2un-337" value="" style="whiteSpace=wrap;html=1;aspect=fixed;fillColor=#FFD966;" parent="a1OFb-E73zAF7D2NQ2un-313" vertex="1">
          <mxGeometry x="48" y="44.66000000000014" width="10" height="10" as="geometry" />
        </mxCell>
        <mxCell id="a1OFb-E73zAF7D2NQ2un-338" value="" style="whiteSpace=wrap;html=1;aspect=fixed;fillColor=#fff2cc;strokeColor=#d6b656;" parent="a1OFb-E73zAF7D2NQ2un-313" vertex="1">
          <mxGeometry x="58" y="44.66000000000014" width="10" height="10" as="geometry" />
        </mxCell>
        <mxCell id="a1OFb-E73zAF7D2NQ2un-339" value="" style="whiteSpace=wrap;html=1;aspect=fixed;fillColor=#fff2cc;strokeColor=#d6b656;" parent="a1OFb-E73zAF7D2NQ2un-313" vertex="1">
          <mxGeometry x="48" y="54.66000000000014" width="10" height="10" as="geometry" />
        </mxCell>
        <mxCell id="a1OFb-E73zAF7D2NQ2un-340" value="" style="whiteSpace=wrap;html=1;aspect=fixed;fillColor=#FFD966;" parent="a1OFb-E73zAF7D2NQ2un-313" vertex="1">
          <mxGeometry x="58" y="54.66000000000014" width="10" height="10" as="geometry" />
        </mxCell>
        <mxCell id="a1OFb-E73zAF7D2NQ2un-341" value="" style="whiteSpace=wrap;html=1;aspect=fixed;fillColor=#FFD966;" parent="a1OFb-E73zAF7D2NQ2un-313" vertex="1">
          <mxGeometry x="48" y="64.66000000000014" width="10" height="10" as="geometry" />
        </mxCell>
        <mxCell id="a1OFb-E73zAF7D2NQ2un-342" value="" style="whiteSpace=wrap;html=1;aspect=fixed;fillColor=#fff2cc;strokeColor=#d6b656;" parent="a1OFb-E73zAF7D2NQ2un-313" vertex="1">
          <mxGeometry x="58" y="64.66000000000014" width="10" height="10" as="geometry" />
        </mxCell>
        <mxCell id="a1OFb-E73zAF7D2NQ2un-343" value="" style="whiteSpace=wrap;html=1;aspect=fixed;fillColor=#fff2cc;strokeColor=#d6b656;" parent="a1OFb-E73zAF7D2NQ2un-313" vertex="1">
          <mxGeometry x="48" y="74.66000000000014" width="10" height="10" as="geometry" />
        </mxCell>
        <mxCell id="a1OFb-E73zAF7D2NQ2un-344" value="" style="whiteSpace=wrap;html=1;aspect=fixed;fillColor=#FFD966;" parent="a1OFb-E73zAF7D2NQ2un-313" vertex="1">
          <mxGeometry x="58" y="74.66000000000014" width="10" height="10" as="geometry" />
        </mxCell>
        <mxCell id="a1OFb-E73zAF7D2NQ2un-345" value="" style="whiteSpace=wrap;html=1;aspect=fixed;fillColor=#FFD966;" parent="a1OFb-E73zAF7D2NQ2un-313" vertex="1">
          <mxGeometry x="68" y="24.66000000000014" width="10" height="10" as="geometry" />
        </mxCell>
        <mxCell id="a1OFb-E73zAF7D2NQ2un-346" value="" style="whiteSpace=wrap;html=1;aspect=fixed;fillColor=#fff2cc;strokeColor=#d6b656;" parent="a1OFb-E73zAF7D2NQ2un-313" vertex="1">
          <mxGeometry x="78" y="24.66000000000014" width="10" height="10" as="geometry" />
        </mxCell>
        <mxCell id="a1OFb-E73zAF7D2NQ2un-347" value="" style="whiteSpace=wrap;html=1;aspect=fixed;fillColor=#fff2cc;strokeColor=#d6b656;" parent="a1OFb-E73zAF7D2NQ2un-313" vertex="1">
          <mxGeometry x="68" y="34.66000000000014" width="10" height="10" as="geometry" />
        </mxCell>
        <mxCell id="a1OFb-E73zAF7D2NQ2un-348" value="" style="whiteSpace=wrap;html=1;aspect=fixed;fillColor=#FFD966;" parent="a1OFb-E73zAF7D2NQ2un-313" vertex="1">
          <mxGeometry x="78" y="34.66000000000014" width="10" height="10" as="geometry" />
        </mxCell>
        <mxCell id="a1OFb-E73zAF7D2NQ2un-349" value="" style="whiteSpace=wrap;html=1;aspect=fixed;fillColor=#FFD966;" parent="a1OFb-E73zAF7D2NQ2un-313" vertex="1">
          <mxGeometry x="68" y="44.66000000000014" width="10" height="10" as="geometry" />
        </mxCell>
        <mxCell id="a1OFb-E73zAF7D2NQ2un-350" value="" style="whiteSpace=wrap;html=1;aspect=fixed;fillColor=#fff2cc;strokeColor=#d6b656;" parent="a1OFb-E73zAF7D2NQ2un-313" vertex="1">
          <mxGeometry x="78" y="44.66000000000014" width="10" height="10" as="geometry" />
        </mxCell>
        <mxCell id="a1OFb-E73zAF7D2NQ2un-351" value="" style="whiteSpace=wrap;html=1;aspect=fixed;fillColor=#fff2cc;strokeColor=#d6b656;" parent="a1OFb-E73zAF7D2NQ2un-313" vertex="1">
          <mxGeometry x="68" y="54.66000000000014" width="10" height="10" as="geometry" />
        </mxCell>
        <mxCell id="a1OFb-E73zAF7D2NQ2un-352" value="" style="whiteSpace=wrap;html=1;aspect=fixed;fillColor=#FFD966;" parent="a1OFb-E73zAF7D2NQ2un-313" vertex="1">
          <mxGeometry x="78" y="54.66000000000014" width="10" height="10" as="geometry" />
        </mxCell>
        <mxCell id="a1OFb-E73zAF7D2NQ2un-353" value="" style="whiteSpace=wrap;html=1;aspect=fixed;fillColor=#FFD966;" parent="a1OFb-E73zAF7D2NQ2un-313" vertex="1">
          <mxGeometry x="68" y="64.66000000000014" width="10" height="10" as="geometry" />
        </mxCell>
        <mxCell id="a1OFb-E73zAF7D2NQ2un-354" value="" style="whiteSpace=wrap;html=1;aspect=fixed;fillColor=#fff2cc;strokeColor=#d6b656;" parent="a1OFb-E73zAF7D2NQ2un-313" vertex="1">
          <mxGeometry x="78" y="64.66000000000014" width="10" height="10" as="geometry" />
        </mxCell>
        <mxCell id="a1OFb-E73zAF7D2NQ2un-355" value="" style="whiteSpace=wrap;html=1;aspect=fixed;fillColor=#fff2cc;strokeColor=#d6b656;" parent="a1OFb-E73zAF7D2NQ2un-313" vertex="1">
          <mxGeometry x="68" y="74.66000000000014" width="10" height="10" as="geometry" />
        </mxCell>
        <mxCell id="a1OFb-E73zAF7D2NQ2un-356" value="" style="whiteSpace=wrap;html=1;aspect=fixed;fillColor=#FFD966;" parent="a1OFb-E73zAF7D2NQ2un-313" vertex="1">
          <mxGeometry x="78" y="74.66000000000014" width="10" height="10" as="geometry" />
        </mxCell>
        <mxCell id="a1OFb-E73zAF7D2NQ2un-357" value="&lt;font face=&quot;Helvetica&quot; style=&quot;font-size: 7px;&quot;&gt;`e_1`&lt;/font&gt;" style="text;html=1;align=center;verticalAlign=middle;resizable=0;points=[];autosize=1;strokeColor=none;fillColor=none;" parent="a1OFb-E73zAF7D2NQ2un-313" vertex="1">
          <mxGeometry x="13" width="40" height="30" as="geometry" />
        </mxCell>
        <mxCell id="a1OFb-E73zAF7D2NQ2un-358" value="&lt;font face=&quot;Helvetica&quot; style=&quot;font-size: 7px;&quot;&gt;`e_3`&lt;/font&gt;" style="text;html=1;align=center;verticalAlign=middle;resizable=0;points=[];autosize=1;strokeColor=none;fillColor=none;" parent="a1OFb-E73zAF7D2NQ2un-313" vertex="1">
          <mxGeometry x="33" width="40" height="30" as="geometry" />
        </mxCell>
        <mxCell id="a1OFb-E73zAF7D2NQ2un-359" value="&lt;font face=&quot;Helvetica&quot; style=&quot;font-size: 7px;&quot;&gt;`e_4`&lt;/font&gt;" style="text;html=1;align=center;verticalAlign=middle;resizable=0;points=[];autosize=1;strokeColor=none;fillColor=none;" parent="a1OFb-E73zAF7D2NQ2un-313" vertex="1">
          <mxGeometry x="43" width="40" height="30" as="geometry" />
        </mxCell>
        <mxCell id="a1OFb-E73zAF7D2NQ2un-360" value="&lt;font face=&quot;Helvetica&quot; style=&quot;font-size: 7px;&quot;&gt;`e_5`&lt;/font&gt;" style="text;html=1;align=center;verticalAlign=middle;resizable=0;points=[];autosize=1;strokeColor=none;fillColor=none;" parent="a1OFb-E73zAF7D2NQ2un-313" vertex="1">
          <mxGeometry x="53" width="40" height="30" as="geometry" />
        </mxCell>
        <mxCell id="a1OFb-E73zAF7D2NQ2un-361" value="&lt;font face=&quot;Helvetica&quot; style=&quot;font-size: 7px;&quot;&gt;`e_6`&lt;/font&gt;" style="text;html=1;align=center;verticalAlign=middle;resizable=0;points=[];autosize=1;strokeColor=none;fillColor=none;" parent="a1OFb-E73zAF7D2NQ2un-313" vertex="1">
          <mxGeometry x="63" width="40" height="30" as="geometry" />
        </mxCell>
        <mxCell id="a1OFb-E73zAF7D2NQ2un-397" value="&lt;font style=&quot;font-size: 9px;&quot; face=&quot;Linux Libertine&quot;&gt;Proximity matrix&amp;nbsp;&lt;/font&gt;" style="text;html=1;align=center;verticalAlign=middle;resizable=0;points=[];autosize=1;strokeColor=none;fillColor=none;" parent="a1OFb-E73zAF7D2NQ2un-405" vertex="1">
          <mxGeometry x="10" y="83.77999999999997" width="90" height="30" as="geometry" />
        </mxCell>
        <mxCell id="7NEAB0VBr8yAtcR63LDv-1" value="&lt;span style=&quot;font-family: &amp;quot;Linux Libertine&amp;quot;; font-size: 9px;&quot;&gt;$$\tilde{\boldsymbol{\Pi}}$$&lt;/span&gt;" style="text;html=1;align=center;verticalAlign=middle;resizable=0;points=[];autosize=1;strokeColor=none;fillColor=none;" vertex="1" parent="a1OFb-E73zAF7D2NQ2un-405">
          <mxGeometry x="32.5" y="83.77999999999997" width="120" height="30" as="geometry" />
        </mxCell>
        <mxCell id="a1OFb-E73zAF7D2NQ2un-406" value="" style="group" parent="1" vertex="1" connectable="0">
          <mxGeometry x="570" y="760" width="132" height="135.65" as="geometry" />
        </mxCell>
        <mxCell id="a1OFb-E73zAF7D2NQ2un-135" value="&lt;font style=&quot;font-size: 7px;&quot; face=&quot;Helvetica&quot;&gt;`e_6`&lt;/font&gt;" style="text;html=1;align=center;verticalAlign=middle;resizable=0;points=[];autosize=1;strokeColor=none;fillColor=none;" parent="a1OFb-E73zAF7D2NQ2un-406" vertex="1">
          <mxGeometry y="96.57807423792075" width="40" height="30" as="geometry" />
        </mxCell>
        <mxCell id="a1OFb-E73zAF7D2NQ2un-136" value="&lt;font style=&quot;font-size: 7px;&quot; face=&quot;Helvetica&quot;&gt;`e_5`&lt;/font&gt;" style="text;html=1;align=center;verticalAlign=middle;resizable=0;points=[];autosize=1;strokeColor=none;fillColor=none;" parent="a1OFb-E73zAF7D2NQ2un-406" vertex="1">
          <mxGeometry y="87.2015621759867" width="40" height="30" as="geometry" />
        </mxCell>
        <mxCell id="a1OFb-E73zAF7D2NQ2un-137" value="&lt;font style=&quot;font-size: 7px;&quot; face=&quot;Helvetica&quot;&gt;`e_4`&lt;/font&gt;" style="text;html=1;align=center;verticalAlign=middle;resizable=0;points=[];autosize=1;strokeColor=none;fillColor=none;" parent="a1OFb-E73zAF7D2NQ2un-406" vertex="1">
          <mxGeometry y="77.82505011405263" width="40" height="30" as="geometry" />
        </mxCell>
        <mxCell id="a1OFb-E73zAF7D2NQ2un-138" value="&lt;font style=&quot;font-size: 7px;&quot; face=&quot;Helvetica&quot;&gt;`e_2`&lt;/font&gt;" style="text;html=1;align=center;verticalAlign=middle;resizable=0;points=[];autosize=1;strokeColor=none;fillColor=none;" parent="a1OFb-E73zAF7D2NQ2un-406" vertex="1">
          <mxGeometry y="59.07202599018453" width="40" height="30" as="geometry" />
        </mxCell>
        <mxCell id="a1OFb-E73zAF7D2NQ2un-139" value="&lt;font style=&quot;font-size: 7px;&quot; face=&quot;Helvetica&quot;&gt;`e_3`&lt;/font&gt;" style="text;html=1;align=center;verticalAlign=middle;resizable=0;points=[];autosize=1;strokeColor=none;fillColor=none;" parent="a1OFb-E73zAF7D2NQ2un-406" vertex="1">
          <mxGeometry y="68.44853805211858" width="40" height="30" as="geometry" />
        </mxCell>
        <mxCell id="a1OFb-E73zAF7D2NQ2un-140" value="&lt;font style=&quot;font-size: 7px;&quot; face=&quot;Helvetica&quot;&gt;`v_3`&lt;/font&gt;" style="text;html=1;align=center;verticalAlign=middle;resizable=0;points=[];autosize=1;strokeColor=none;fillColor=none;" parent="a1OFb-E73zAF7D2NQ2un-406" vertex="1">
          <mxGeometry y="30.942489804382372" width="40" height="30" as="geometry" />
        </mxCell>
        <mxCell id="a1OFb-E73zAF7D2NQ2un-141" value="&lt;font style=&quot;font-size: 7px;&quot; face=&quot;Helvetica&quot;&gt;`v_4`&lt;/font&gt;" style="text;html=1;align=center;verticalAlign=middle;resizable=0;points=[];autosize=1;strokeColor=none;fillColor=none;" parent="a1OFb-E73zAF7D2NQ2un-406" vertex="1">
          <mxGeometry y="40.31900186631643" width="40" height="30" as="geometry" />
        </mxCell>
        <mxCell id="a1OFb-E73zAF7D2NQ2un-152" value="&lt;font style=&quot;font-size: 7px;&quot; face=&quot;Helvetica&quot;&gt;`e_1`&lt;/font&gt;" style="text;html=1;align=center;verticalAlign=middle;resizable=0;points=[];autosize=1;strokeColor=none;fillColor=none;" parent="a1OFb-E73zAF7D2NQ2un-406" vertex="1">
          <mxGeometry y="49.69551392825048" width="40" height="30" as="geometry" />
        </mxCell>
        <mxCell id="a1OFb-E73zAF7D2NQ2un-153" value="" style="whiteSpace=wrap;html=1;aspect=fixed;fillColor=#dae8fc;strokeColor=#6c8ebf;" parent="a1OFb-E73zAF7D2NQ2un-406" vertex="1">
          <mxGeometry x="36.41379310344828" y="60.637903504527586" width="9.10344827586207" height="9.10344827586207" as="geometry" />
        </mxCell>
        <mxCell id="a1OFb-E73zAF7D2NQ2un-154" value="" style="whiteSpace=wrap;html=1;aspect=fixed;" parent="a1OFb-E73zAF7D2NQ2un-406" vertex="1">
          <mxGeometry x="45.51724137931035" y="60.637903504527586" width="9.10344827586207" height="9.10344827586207" as="geometry" />
        </mxCell>
        <mxCell id="a1OFb-E73zAF7D2NQ2un-155" value="" style="whiteSpace=wrap;html=1;aspect=fixed;fillColor=#dae8fc;strokeColor=#6c8ebf;" parent="a1OFb-E73zAF7D2NQ2un-406" vertex="1">
          <mxGeometry x="27.310344827586206" y="60.637903504527586" width="9.10344827586207" height="9.10344827586207" as="geometry" />
        </mxCell>
        <mxCell id="a1OFb-E73zAF7D2NQ2un-156" value="" style="whiteSpace=wrap;html=1;aspect=fixed;fillColor=#ffe6cc;strokeColor=#d79b00;" parent="a1OFb-E73zAF7D2NQ2un-406" vertex="1">
          <mxGeometry x="36.41379310344828" y="70.01441556646164" width="9.10344827586207" height="9.10344827586207" as="geometry" />
        </mxCell>
        <mxCell id="a1OFb-E73zAF7D2NQ2un-157" value="" style="whiteSpace=wrap;html=1;aspect=fixed;" parent="a1OFb-E73zAF7D2NQ2un-406" vertex="1">
          <mxGeometry x="45.51724137931035" y="70.01441556646164" width="9.10344827586207" height="9.10344827586207" as="geometry" />
        </mxCell>
        <mxCell id="a1OFb-E73zAF7D2NQ2un-158" value="" style="whiteSpace=wrap;html=1;aspect=fixed;fillColor=#ffe6cc;strokeColor=#d79b00;" parent="a1OFb-E73zAF7D2NQ2un-406" vertex="1">
          <mxGeometry x="27.310344827586206" y="70.01441556646164" width="9.10344827586207" height="9.10344827586207" as="geometry" />
        </mxCell>
        <mxCell id="a1OFb-E73zAF7D2NQ2un-159" value="" style="whiteSpace=wrap;html=1;aspect=fixed;" parent="a1OFb-E73zAF7D2NQ2un-406" vertex="1">
          <mxGeometry x="36.41379310344828" y="79.39092762839569" width="9.10344827586207" height="9.10344827586207" as="geometry" />
        </mxCell>
        <mxCell id="a1OFb-E73zAF7D2NQ2un-160" value="" style="whiteSpace=wrap;html=1;aspect=fixed;fillColor=#f8cecc;strokeColor=#b85450;" parent="a1OFb-E73zAF7D2NQ2un-406" vertex="1">
          <mxGeometry x="45.51724137931035" y="79.39092762839569" width="9.10344827586207" height="9.10344827586207" as="geometry" />
        </mxCell>
        <mxCell id="a1OFb-E73zAF7D2NQ2un-161" value="" style="whiteSpace=wrap;html=1;aspect=fixed;fillColor=#f8cecc;strokeColor=#b85450;" parent="a1OFb-E73zAF7D2NQ2un-406" vertex="1">
          <mxGeometry x="27.310344827586206" y="79.39092762839569" width="9.10344827586207" height="9.10344827586207" as="geometry" />
        </mxCell>
        <mxCell id="a1OFb-E73zAF7D2NQ2un-162" value="" style="whiteSpace=wrap;html=1;aspect=fixed;" parent="a1OFb-E73zAF7D2NQ2un-406" vertex="1">
          <mxGeometry x="36.41379310344828" y="88.76743969032974" width="9.10344827586207" height="9.10344827586207" as="geometry" />
        </mxCell>
        <mxCell id="a1OFb-E73zAF7D2NQ2un-163" value="" style="whiteSpace=wrap;html=1;aspect=fixed;fillColor=#e1d5e7;strokeColor=#9673a6;" parent="a1OFb-E73zAF7D2NQ2un-406" vertex="1">
          <mxGeometry x="45.51724137931035" y="88.76743969032974" width="9.10344827586207" height="9.10344827586207" as="geometry" />
        </mxCell>
        <mxCell id="a1OFb-E73zAF7D2NQ2un-164" value="" style="whiteSpace=wrap;html=1;aspect=fixed;fillColor=#e1d5e7;strokeColor=#9673a6;" parent="a1OFb-E73zAF7D2NQ2un-406" vertex="1">
          <mxGeometry x="27.310344827586206" y="88.76743969032974" width="9.10344827586207" height="9.10344827586207" as="geometry" />
        </mxCell>
        <mxCell id="a1OFb-E73zAF7D2NQ2un-165" value="" style="group" parent="a1OFb-E73zAF7D2NQ2un-406" vertex="1" connectable="0">
          <mxGeometry x="54.62068965517241" y="60.637903504527586" width="27.310344827586206" height="48.44843782401315" as="geometry" />
        </mxCell>
        <mxCell id="a1OFb-E73zAF7D2NQ2un-166" value="" style="whiteSpace=wrap;html=1;aspect=fixed;" parent="a1OFb-E73zAF7D2NQ2un-165" vertex="1">
          <mxGeometry x="9.103448275862068" width="9.103448275862068" height="9.103448275862068" as="geometry" />
        </mxCell>
        <mxCell id="a1OFb-E73zAF7D2NQ2un-167" value="" style="whiteSpace=wrap;html=1;aspect=fixed;" parent="a1OFb-E73zAF7D2NQ2un-165" vertex="1">
          <mxGeometry x="18.206896551724135" width="9.103448275862068" height="9.103448275862068" as="geometry" />
        </mxCell>
        <mxCell id="a1OFb-E73zAF7D2NQ2un-168" value="" style="whiteSpace=wrap;html=1;aspect=fixed;" parent="a1OFb-E73zAF7D2NQ2un-165" vertex="1">
          <mxGeometry width="9.103448275862068" height="9.103448275862068" as="geometry" />
        </mxCell>
        <mxCell id="a1OFb-E73zAF7D2NQ2un-169" value="" style="whiteSpace=wrap;html=1;aspect=fixed;" parent="a1OFb-E73zAF7D2NQ2un-165" vertex="1">
          <mxGeometry x="9.103448275862068" y="9.376512061934054" width="9.103448275862068" height="9.103448275862068" as="geometry" />
        </mxCell>
        <mxCell id="a1OFb-E73zAF7D2NQ2un-170" value="" style="whiteSpace=wrap;html=1;aspect=fixed;" parent="a1OFb-E73zAF7D2NQ2un-165" vertex="1">
          <mxGeometry x="18.206896551724135" y="9.376512061934054" width="9.103448275862068" height="9.103448275862068" as="geometry" />
        </mxCell>
        <mxCell id="a1OFb-E73zAF7D2NQ2un-171" value="" style="whiteSpace=wrap;html=1;aspect=fixed;" parent="a1OFb-E73zAF7D2NQ2un-165" vertex="1">
          <mxGeometry y="9.376512061934054" width="9.103448275862068" height="9.103448275862068" as="geometry" />
        </mxCell>
        <mxCell id="a1OFb-E73zAF7D2NQ2un-172" value="" style="whiteSpace=wrap;html=1;aspect=fixed;" parent="a1OFb-E73zAF7D2NQ2un-165" vertex="1">
          <mxGeometry x="9.103448275862068" y="18.75302412386811" width="9.103448275862068" height="9.103448275862068" as="geometry" />
        </mxCell>
        <mxCell id="a1OFb-E73zAF7D2NQ2un-173" value="" style="whiteSpace=wrap;html=1;aspect=fixed;" parent="a1OFb-E73zAF7D2NQ2un-165" vertex="1">
          <mxGeometry x="18.206896551724135" y="18.75302412386811" width="9.103448275862068" height="9.103448275862068" as="geometry" />
        </mxCell>
        <mxCell id="a1OFb-E73zAF7D2NQ2un-174" value="" style="whiteSpace=wrap;html=1;aspect=fixed;" parent="a1OFb-E73zAF7D2NQ2un-165" vertex="1">
          <mxGeometry y="18.75302412386811" width="9.103448275862068" height="9.103448275862068" as="geometry" />
        </mxCell>
        <mxCell id="a1OFb-E73zAF7D2NQ2un-175" value="" style="whiteSpace=wrap;html=1;aspect=fixed;" parent="a1OFb-E73zAF7D2NQ2un-165" vertex="1">
          <mxGeometry x="9.103448275862068" y="28.12953618580216" width="9.103448275862068" height="9.103448275862068" as="geometry" />
        </mxCell>
        <mxCell id="a1OFb-E73zAF7D2NQ2un-176" value="" style="whiteSpace=wrap;html=1;aspect=fixed;" parent="a1OFb-E73zAF7D2NQ2un-165" vertex="1">
          <mxGeometry x="18.206896551724135" y="28.12953618580216" width="9.103448275862068" height="9.103448275862068" as="geometry" />
        </mxCell>
        <mxCell id="a1OFb-E73zAF7D2NQ2un-177" value="" style="whiteSpace=wrap;html=1;aspect=fixed;" parent="a1OFb-E73zAF7D2NQ2un-165" vertex="1">
          <mxGeometry y="28.12953618580216" width="9.103448275862068" height="9.103448275862068" as="geometry" />
        </mxCell>
        <mxCell id="a1OFb-E73zAF7D2NQ2un-178" value="" style="whiteSpace=wrap;html=1;aspect=fixed;fillColor=#FFCCE6;" parent="a1OFb-E73zAF7D2NQ2un-406" vertex="1">
          <mxGeometry x="36.41379310344828" y="98.1439517522638" width="9.10344827586207" height="9.10344827586207" as="geometry" />
        </mxCell>
        <mxCell id="a1OFb-E73zAF7D2NQ2un-179" value="" style="whiteSpace=wrap;html=1;aspect=fixed;fillColor=#FFCCE6;" parent="a1OFb-E73zAF7D2NQ2un-406" vertex="1">
          <mxGeometry x="45.51724137931035" y="98.1439517522638" width="9.10344827586207" height="9.10344827586207" as="geometry" />
        </mxCell>
        <mxCell id="a1OFb-E73zAF7D2NQ2un-180" value="" style="whiteSpace=wrap;html=1;aspect=fixed;fillColor=#FFFFFF;" parent="a1OFb-E73zAF7D2NQ2un-406" vertex="1">
          <mxGeometry x="27.310344827586206" y="98.1439517522638" width="9.10344827586207" height="9.10344827586207" as="geometry" />
        </mxCell>
        <mxCell id="a1OFb-E73zAF7D2NQ2un-181" value="" style="whiteSpace=wrap;html=1;aspect=fixed;" parent="a1OFb-E73zAF7D2NQ2un-406" vertex="1">
          <mxGeometry x="36.41379310344828" y="107.52046381419785" width="9.10344827586207" height="9.10344827586207" as="geometry" />
        </mxCell>
        <mxCell id="a1OFb-E73zAF7D2NQ2un-182" value="" style="whiteSpace=wrap;html=1;aspect=fixed;fillColor=#97D077;" parent="a1OFb-E73zAF7D2NQ2un-406" vertex="1">
          <mxGeometry x="45.51724137931035" y="107.52046381419785" width="9.10344827586207" height="9.10344827586207" as="geometry" />
        </mxCell>
        <mxCell id="a1OFb-E73zAF7D2NQ2un-183" value="" style="whiteSpace=wrap;html=1;aspect=fixed;" parent="a1OFb-E73zAF7D2NQ2un-406" vertex="1">
          <mxGeometry x="27.310344827586206" y="107.52046381419785" width="9.10344827586207" height="9.10344827586207" as="geometry" />
        </mxCell>
        <mxCell id="a1OFb-E73zAF7D2NQ2un-184" value="" style="group" parent="a1OFb-E73zAF7D2NQ2un-406" vertex="1" connectable="0">
          <mxGeometry x="54.62068965517241" y="98.1439517522638" width="27.310344827586206" height="37.50604824773621" as="geometry" />
        </mxCell>
        <mxCell id="a1OFb-E73zAF7D2NQ2un-185" value="" style="whiteSpace=wrap;html=1;aspect=fixed;" parent="a1OFb-E73zAF7D2NQ2un-184" vertex="1">
          <mxGeometry x="9.103448275862068" width="9.103448275862068" height="9.103448275862068" as="geometry" />
        </mxCell>
        <mxCell id="a1OFb-E73zAF7D2NQ2un-186" value="" style="whiteSpace=wrap;html=1;aspect=fixed;" parent="a1OFb-E73zAF7D2NQ2un-184" vertex="1">
          <mxGeometry x="18.206896551724135" width="9.103448275862068" height="9.103448275862068" as="geometry" />
        </mxCell>
        <mxCell id="a1OFb-E73zAF7D2NQ2un-187" value="" style="whiteSpace=wrap;html=1;aspect=fixed;" parent="a1OFb-E73zAF7D2NQ2un-184" vertex="1">
          <mxGeometry width="9.103448275862068" height="9.103448275862068" as="geometry" />
        </mxCell>
        <mxCell id="a1OFb-E73zAF7D2NQ2un-188" value="" style="whiteSpace=wrap;html=1;aspect=fixed;" parent="a1OFb-E73zAF7D2NQ2un-184" vertex="1">
          <mxGeometry x="9.103448275862068" y="9.376512061934053" width="9.103448275862068" height="9.103448275862068" as="geometry" />
        </mxCell>
        <mxCell id="a1OFb-E73zAF7D2NQ2un-189" value="" style="whiteSpace=wrap;html=1;aspect=fixed;" parent="a1OFb-E73zAF7D2NQ2un-184" vertex="1">
          <mxGeometry x="18.206896551724135" y="9.376512061934053" width="9.103448275862068" height="9.103448275862068" as="geometry" />
        </mxCell>
        <mxCell id="a1OFb-E73zAF7D2NQ2un-190" value="" style="whiteSpace=wrap;html=1;aspect=fixed;fillColor=#97D077;" parent="a1OFb-E73zAF7D2NQ2un-184" vertex="1">
          <mxGeometry y="9.376512061934053" width="9.103448275862068" height="9.103448275862068" as="geometry" />
        </mxCell>
        <mxCell id="a1OFb-E73zAF7D2NQ2un-191" value="" style="whiteSpace=wrap;html=1;aspect=fixed;" parent="a1OFb-E73zAF7D2NQ2un-406" vertex="1">
          <mxGeometry x="36.41379310344828" y="51.261391442593535" width="9.10344827586207" height="9.10344827586207" as="geometry" />
        </mxCell>
        <mxCell id="a1OFb-E73zAF7D2NQ2un-192" value="" style="whiteSpace=wrap;html=1;aspect=fixed;" parent="a1OFb-E73zAF7D2NQ2un-406" vertex="1">
          <mxGeometry x="45.51724137931035" y="51.261391442593535" width="9.10344827586207" height="9.10344827586207" as="geometry" />
        </mxCell>
        <mxCell id="a1OFb-E73zAF7D2NQ2un-193" value="" style="whiteSpace=wrap;html=1;aspect=fixed;" parent="a1OFb-E73zAF7D2NQ2un-406" vertex="1">
          <mxGeometry x="27.310344827586206" y="51.261391442593535" width="9.10344827586207" height="9.10344827586207" as="geometry" />
        </mxCell>
        <mxCell id="a1OFb-E73zAF7D2NQ2un-194" value="" style="whiteSpace=wrap;html=1;aspect=fixed;" parent="a1OFb-E73zAF7D2NQ2un-406" vertex="1">
          <mxGeometry x="63.724137931034484" y="51.261391442593535" width="9.10344827586207" height="9.10344827586207" as="geometry" />
        </mxCell>
        <mxCell id="a1OFb-E73zAF7D2NQ2un-195" value="" style="whiteSpace=wrap;html=1;aspect=fixed;" parent="a1OFb-E73zAF7D2NQ2un-406" vertex="1">
          <mxGeometry x="72.82758620689656" y="51.261391442593535" width="9.10344827586207" height="9.10344827586207" as="geometry" />
        </mxCell>
        <mxCell id="a1OFb-E73zAF7D2NQ2un-196" value="" style="whiteSpace=wrap;html=1;aspect=fixed;" parent="a1OFb-E73zAF7D2NQ2un-406" vertex="1">
          <mxGeometry x="54.62068965517241" y="51.261391442593535" width="9.10344827586207" height="9.10344827586207" as="geometry" />
        </mxCell>
        <mxCell id="a1OFb-E73zAF7D2NQ2un-197" value="" style="whiteSpace=wrap;html=1;aspect=fixed;" parent="a1OFb-E73zAF7D2NQ2un-406" vertex="1">
          <mxGeometry x="36.41379310344828" y="41.884879380659484" width="9.10344827586207" height="9.10344827586207" as="geometry" />
        </mxCell>
        <mxCell id="a1OFb-E73zAF7D2NQ2un-198" value="" style="whiteSpace=wrap;html=1;aspect=fixed;" parent="a1OFb-E73zAF7D2NQ2un-406" vertex="1">
          <mxGeometry x="45.51724137931035" y="41.884879380659484" width="9.10344827586207" height="9.10344827586207" as="geometry" />
        </mxCell>
        <mxCell id="a1OFb-E73zAF7D2NQ2un-199" value="" style="whiteSpace=wrap;html=1;aspect=fixed;" parent="a1OFb-E73zAF7D2NQ2un-406" vertex="1">
          <mxGeometry x="27.310344827586206" y="41.884879380659484" width="9.10344827586207" height="9.10344827586207" as="geometry" />
        </mxCell>
        <mxCell id="a1OFb-E73zAF7D2NQ2un-200" value="" style="whiteSpace=wrap;html=1;aspect=fixed;" parent="a1OFb-E73zAF7D2NQ2un-406" vertex="1">
          <mxGeometry x="63.724137931034484" y="41.884879380659484" width="9.10344827586207" height="9.10344827586207" as="geometry" />
        </mxCell>
        <mxCell id="a1OFb-E73zAF7D2NQ2un-201" value="" style="whiteSpace=wrap;html=1;aspect=fixed;" parent="a1OFb-E73zAF7D2NQ2un-406" vertex="1">
          <mxGeometry x="72.82758620689656" y="41.884879380659484" width="9.10344827586207" height="9.10344827586207" as="geometry" />
        </mxCell>
        <mxCell id="a1OFb-E73zAF7D2NQ2un-202" value="" style="whiteSpace=wrap;html=1;aspect=fixed;" parent="a1OFb-E73zAF7D2NQ2un-406" vertex="1">
          <mxGeometry x="54.62068965517241" y="41.884879380659484" width="9.10344827586207" height="9.10344827586207" as="geometry" />
        </mxCell>
        <mxCell id="a1OFb-E73zAF7D2NQ2un-203" value="" style="whiteSpace=wrap;html=1;aspect=fixed;" parent="a1OFb-E73zAF7D2NQ2un-406" vertex="1">
          <mxGeometry x="36.41379310344828" y="32.508367318725426" width="9.10344827586207" height="9.10344827586207" as="geometry" />
        </mxCell>
        <mxCell id="a1OFb-E73zAF7D2NQ2un-204" value="" style="whiteSpace=wrap;html=1;aspect=fixed;" parent="a1OFb-E73zAF7D2NQ2un-406" vertex="1">
          <mxGeometry x="45.51724137931035" y="32.508367318725426" width="9.10344827586207" height="9.10344827586207" as="geometry" />
        </mxCell>
        <mxCell id="a1OFb-E73zAF7D2NQ2un-205" value="" style="whiteSpace=wrap;html=1;aspect=fixed;" parent="a1OFb-E73zAF7D2NQ2un-406" vertex="1">
          <mxGeometry x="27.310344827586206" y="32.508367318725426" width="9.10344827586207" height="9.10344827586207" as="geometry" />
        </mxCell>
        <mxCell id="a1OFb-E73zAF7D2NQ2un-206" value="" style="whiteSpace=wrap;html=1;aspect=fixed;fillColor=#dae8fc;strokeColor=#6c8ebf;" parent="a1OFb-E73zAF7D2NQ2un-406" vertex="1">
          <mxGeometry x="63.724137931034484" y="32.508367318725426" width="9.10344827586207" height="9.10344827586207" as="geometry" />
        </mxCell>
        <mxCell id="a1OFb-E73zAF7D2NQ2un-207" value="" style="whiteSpace=wrap;html=1;aspect=fixed;fillColor=#ffe6cc;strokeColor=#d79b00;" parent="a1OFb-E73zAF7D2NQ2un-406" vertex="1">
          <mxGeometry x="72.82758620689656" y="32.508367318725426" width="9.10344827586207" height="9.10344827586207" as="geometry" />
        </mxCell>
        <mxCell id="a1OFb-E73zAF7D2NQ2un-208" value="" style="whiteSpace=wrap;html=1;aspect=fixed;" parent="a1OFb-E73zAF7D2NQ2un-406" vertex="1">
          <mxGeometry x="54.62068965517241" y="32.508367318725426" width="9.10344827586207" height="9.10344827586207" as="geometry" />
        </mxCell>
        <mxCell id="a1OFb-E73zAF7D2NQ2un-209" value="" style="whiteSpace=wrap;html=1;aspect=fixed;" parent="a1OFb-E73zAF7D2NQ2un-406" vertex="1">
          <mxGeometry x="36.41379310344828" y="23.131855256791376" width="9.10344827586207" height="9.10344827586207" as="geometry" />
        </mxCell>
        <mxCell id="a1OFb-E73zAF7D2NQ2un-210" value="" style="whiteSpace=wrap;html=1;aspect=fixed;" parent="a1OFb-E73zAF7D2NQ2un-406" vertex="1">
          <mxGeometry x="45.51724137931035" y="23.131855256791376" width="9.10344827586207" height="9.10344827586207" as="geometry" />
        </mxCell>
        <mxCell id="a1OFb-E73zAF7D2NQ2un-211" value="" style="whiteSpace=wrap;html=1;aspect=fixed;" parent="a1OFb-E73zAF7D2NQ2un-406" vertex="1">
          <mxGeometry x="27.310344827586206" y="23.131855256791376" width="9.10344827586207" height="9.10344827586207" as="geometry" />
        </mxCell>
        <mxCell id="a1OFb-E73zAF7D2NQ2un-212" value="" style="whiteSpace=wrap;html=1;aspect=fixed;fillColor=#dae8fc;strokeColor=#6c8ebf;" parent="a1OFb-E73zAF7D2NQ2un-406" vertex="1">
          <mxGeometry x="63.724137931034484" y="23.131855256791376" width="9.10344827586207" height="9.10344827586207" as="geometry" />
        </mxCell>
        <mxCell id="a1OFb-E73zAF7D2NQ2un-213" value="" style="whiteSpace=wrap;html=1;aspect=fixed;fillColor=#ffe6cc;strokeColor=#d79b00;" parent="a1OFb-E73zAF7D2NQ2un-406" vertex="1">
          <mxGeometry x="72.82758620689656" y="23.131855256791376" width="9.10344827586207" height="9.10344827586207" as="geometry" />
        </mxCell>
        <mxCell id="a1OFb-E73zAF7D2NQ2un-214" value="" style="whiteSpace=wrap;html=1;aspect=fixed;" parent="a1OFb-E73zAF7D2NQ2un-406" vertex="1">
          <mxGeometry x="54.62068965517241" y="23.131855256791376" width="9.10344827586207" height="9.10344827586207" as="geometry" />
        </mxCell>
        <mxCell id="a1OFb-E73zAF7D2NQ2un-215" value="&lt;font style=&quot;font-size: 7px;&quot; face=&quot;Helvetica&quot;&gt;`v_2`&lt;/font&gt;" style="text;html=1;align=center;verticalAlign=middle;resizable=0;points=[];autosize=1;strokeColor=none;fillColor=none;" parent="a1OFb-E73zAF7D2NQ2un-406" vertex="1">
          <mxGeometry y="21.56597774244832" width="40" height="30" as="geometry" />
        </mxCell>
        <mxCell id="a1OFb-E73zAF7D2NQ2un-216" value="&lt;font style=&quot;font-size: 7px;&quot; face=&quot;Helvetica&quot;&gt;`v_1`&lt;/font&gt;" style="text;html=1;align=center;verticalAlign=middle;resizable=0;points=[];autosize=1;strokeColor=none;fillColor=none;" parent="a1OFb-E73zAF7D2NQ2un-406" vertex="1">
          <mxGeometry y="12.189465680514267" width="40" height="30" as="geometry" />
        </mxCell>
        <mxCell id="a1OFb-E73zAF7D2NQ2un-217" value="" style="whiteSpace=wrap;html=1;aspect=fixed;" parent="a1OFb-E73zAF7D2NQ2un-406" vertex="1">
          <mxGeometry x="81.93103448275862" y="60.637903504527586" width="9.10344827586207" height="9.10344827586207" as="geometry" />
        </mxCell>
        <mxCell id="a1OFb-E73zAF7D2NQ2un-218" value="" style="whiteSpace=wrap;html=1;aspect=fixed;" parent="a1OFb-E73zAF7D2NQ2un-406" vertex="1">
          <mxGeometry x="91.0344827586207" y="60.637903504527586" width="9.10344827586207" height="9.10344827586207" as="geometry" />
        </mxCell>
        <mxCell id="a1OFb-E73zAF7D2NQ2un-219" value="" style="whiteSpace=wrap;html=1;aspect=fixed;" parent="a1OFb-E73zAF7D2NQ2un-406" vertex="1">
          <mxGeometry x="81.93103448275862" y="70.01441556646164" width="9.10344827586207" height="9.10344827586207" as="geometry" />
        </mxCell>
        <mxCell id="a1OFb-E73zAF7D2NQ2un-220" value="" style="whiteSpace=wrap;html=1;aspect=fixed;" parent="a1OFb-E73zAF7D2NQ2un-406" vertex="1">
          <mxGeometry x="91.0344827586207" y="70.01441556646164" width="9.10344827586207" height="9.10344827586207" as="geometry" />
        </mxCell>
        <mxCell id="a1OFb-E73zAF7D2NQ2un-221" value="" style="whiteSpace=wrap;html=1;aspect=fixed;" parent="a1OFb-E73zAF7D2NQ2un-406" vertex="1">
          <mxGeometry x="81.93103448275862" y="79.39092762839569" width="9.10344827586207" height="9.10344827586207" as="geometry" />
        </mxCell>
        <mxCell id="a1OFb-E73zAF7D2NQ2un-222" value="" style="whiteSpace=wrap;html=1;aspect=fixed;" parent="a1OFb-E73zAF7D2NQ2un-406" vertex="1">
          <mxGeometry x="91.0344827586207" y="79.39092762839569" width="9.10344827586207" height="9.10344827586207" as="geometry" />
        </mxCell>
        <mxCell id="a1OFb-E73zAF7D2NQ2un-223" value="" style="whiteSpace=wrap;html=1;aspect=fixed;" parent="a1OFb-E73zAF7D2NQ2un-406" vertex="1">
          <mxGeometry x="81.93103448275862" y="88.76743969032974" width="9.10344827586207" height="9.10344827586207" as="geometry" />
        </mxCell>
        <mxCell id="a1OFb-E73zAF7D2NQ2un-224" value="" style="whiteSpace=wrap;html=1;aspect=fixed;" parent="a1OFb-E73zAF7D2NQ2un-406" vertex="1">
          <mxGeometry x="91.0344827586207" y="88.76743969032974" width="9.10344827586207" height="9.10344827586207" as="geometry" />
        </mxCell>
        <mxCell id="a1OFb-E73zAF7D2NQ2un-225" value="" style="whiteSpace=wrap;html=1;aspect=fixed;" parent="a1OFb-E73zAF7D2NQ2un-406" vertex="1">
          <mxGeometry x="81.93103448275862" y="98.1439517522638" width="9.10344827586207" height="9.10344827586207" as="geometry" />
        </mxCell>
        <mxCell id="a1OFb-E73zAF7D2NQ2un-226" value="" style="whiteSpace=wrap;html=1;aspect=fixed;" parent="a1OFb-E73zAF7D2NQ2un-406" vertex="1">
          <mxGeometry x="91.0344827586207" y="98.1439517522638" width="9.10344827586207" height="9.10344827586207" as="geometry" />
        </mxCell>
        <mxCell id="a1OFb-E73zAF7D2NQ2un-227" value="" style="whiteSpace=wrap;html=1;aspect=fixed;" parent="a1OFb-E73zAF7D2NQ2un-406" vertex="1">
          <mxGeometry x="81.93103448275862" y="107.52046381419785" width="9.10344827586207" height="9.10344827586207" as="geometry" />
        </mxCell>
        <mxCell id="a1OFb-E73zAF7D2NQ2un-228" value="" style="whiteSpace=wrap;html=1;aspect=fixed;" parent="a1OFb-E73zAF7D2NQ2un-406" vertex="1">
          <mxGeometry x="91.0344827586207" y="107.52046381419785" width="9.10344827586207" height="9.10344827586207" as="geometry" />
        </mxCell>
        <mxCell id="a1OFb-E73zAF7D2NQ2un-229" value="" style="whiteSpace=wrap;html=1;aspect=fixed;" parent="a1OFb-E73zAF7D2NQ2un-406" vertex="1">
          <mxGeometry x="81.93103448275862" y="51.261391442593535" width="9.10344827586207" height="9.10344827586207" as="geometry" />
        </mxCell>
        <mxCell id="a1OFb-E73zAF7D2NQ2un-230" value="" style="whiteSpace=wrap;html=1;aspect=fixed;" parent="a1OFb-E73zAF7D2NQ2un-406" vertex="1">
          <mxGeometry x="91.0344827586207" y="51.261391442593535" width="9.10344827586207" height="9.10344827586207" as="geometry" />
        </mxCell>
        <mxCell id="a1OFb-E73zAF7D2NQ2un-231" value="" style="whiteSpace=wrap;html=1;aspect=fixed;fillColor=#f8cecc;strokeColor=#b85450;" parent="a1OFb-E73zAF7D2NQ2un-406" vertex="1">
          <mxGeometry x="81.93103448275862" y="41.884879380659484" width="9.10344827586207" height="9.10344827586207" as="geometry" />
        </mxCell>
        <mxCell id="a1OFb-E73zAF7D2NQ2un-232" value="" style="whiteSpace=wrap;html=1;aspect=fixed;fillColor=#e1d5e7;strokeColor=#9673a6;" parent="a1OFb-E73zAF7D2NQ2un-406" vertex="1">
          <mxGeometry x="91.0344827586207" y="41.884879380659484" width="9.10344827586207" height="9.10344827586207" as="geometry" />
        </mxCell>
        <mxCell id="a1OFb-E73zAF7D2NQ2un-233" value="" style="whiteSpace=wrap;html=1;aspect=fixed;" parent="a1OFb-E73zAF7D2NQ2un-406" vertex="1">
          <mxGeometry x="81.93103448275862" y="32.508367318725426" width="9.10344827586207" height="9.10344827586207" as="geometry" />
        </mxCell>
        <mxCell id="a1OFb-E73zAF7D2NQ2un-234" value="" style="whiteSpace=wrap;html=1;aspect=fixed;" parent="a1OFb-E73zAF7D2NQ2un-406" vertex="1">
          <mxGeometry x="91.0344827586207" y="32.508367318725426" width="9.10344827586207" height="9.10344827586207" as="geometry" />
        </mxCell>
        <mxCell id="a1OFb-E73zAF7D2NQ2un-235" value="" style="whiteSpace=wrap;html=1;aspect=fixed;fillColor=#f8cecc;strokeColor=#b85450;" parent="a1OFb-E73zAF7D2NQ2un-406" vertex="1">
          <mxGeometry x="81.93103448275862" y="23.131855256791376" width="9.10344827586207" height="9.10344827586207" as="geometry" />
        </mxCell>
        <mxCell id="a1OFb-E73zAF7D2NQ2un-236" value="" style="whiteSpace=wrap;html=1;aspect=fixed;fillColor=#e1d5e7;strokeColor=#9673a6;" parent="a1OFb-E73zAF7D2NQ2un-406" vertex="1">
          <mxGeometry x="91.0344827586207" y="23.131855256791376" width="9.10344827586207" height="9.10344827586207" as="geometry" />
        </mxCell>
        <mxCell id="a1OFb-E73zAF7D2NQ2un-237" value="" style="whiteSpace=wrap;html=1;aspect=fixed;" parent="a1OFb-E73zAF7D2NQ2un-406" vertex="1">
          <mxGeometry x="100.13793103448276" y="60.637903504527586" width="9.10344827586207" height="9.10344827586207" as="geometry" />
        </mxCell>
        <mxCell id="a1OFb-E73zAF7D2NQ2un-238" value="" style="whiteSpace=wrap;html=1;aspect=fixed;" parent="a1OFb-E73zAF7D2NQ2un-406" vertex="1">
          <mxGeometry x="109.24137931034483" y="60.637903504527586" width="9.10344827586207" height="9.10344827586207" as="geometry" />
        </mxCell>
        <mxCell id="a1OFb-E73zAF7D2NQ2un-239" value="" style="whiteSpace=wrap;html=1;aspect=fixed;" parent="a1OFb-E73zAF7D2NQ2un-406" vertex="1">
          <mxGeometry x="100.13793103448276" y="70.01441556646164" width="9.10344827586207" height="9.10344827586207" as="geometry" />
        </mxCell>
        <mxCell id="a1OFb-E73zAF7D2NQ2un-240" value="" style="whiteSpace=wrap;html=1;aspect=fixed;" parent="a1OFb-E73zAF7D2NQ2un-406" vertex="1">
          <mxGeometry x="109.24137931034483" y="70.01441556646164" width="9.10344827586207" height="9.10344827586207" as="geometry" />
        </mxCell>
        <mxCell id="a1OFb-E73zAF7D2NQ2un-241" value="" style="whiteSpace=wrap;html=1;aspect=fixed;" parent="a1OFb-E73zAF7D2NQ2un-406" vertex="1">
          <mxGeometry x="100.13793103448276" y="79.39092762839569" width="9.10344827586207" height="9.10344827586207" as="geometry" />
        </mxCell>
        <mxCell id="a1OFb-E73zAF7D2NQ2un-242" value="" style="whiteSpace=wrap;html=1;aspect=fixed;" parent="a1OFb-E73zAF7D2NQ2un-406" vertex="1">
          <mxGeometry x="109.24137931034483" y="79.39092762839569" width="9.10344827586207" height="9.10344827586207" as="geometry" />
        </mxCell>
        <mxCell id="a1OFb-E73zAF7D2NQ2un-243" value="" style="whiteSpace=wrap;html=1;aspect=fixed;" parent="a1OFb-E73zAF7D2NQ2un-406" vertex="1">
          <mxGeometry x="100.13793103448276" y="88.76743969032974" width="9.10344827586207" height="9.10344827586207" as="geometry" />
        </mxCell>
        <mxCell id="a1OFb-E73zAF7D2NQ2un-244" value="" style="whiteSpace=wrap;html=1;aspect=fixed;" parent="a1OFb-E73zAF7D2NQ2un-406" vertex="1">
          <mxGeometry x="109.24137931034483" y="88.76743969032974" width="9.10344827586207" height="9.10344827586207" as="geometry" />
        </mxCell>
        <mxCell id="a1OFb-E73zAF7D2NQ2un-245" value="" style="whiteSpace=wrap;html=1;aspect=fixed;" parent="a1OFb-E73zAF7D2NQ2un-406" vertex="1">
          <mxGeometry x="100.13793103448276" y="98.1439517522638" width="9.10344827586207" height="9.10344827586207" as="geometry" />
        </mxCell>
        <mxCell id="a1OFb-E73zAF7D2NQ2un-246" value="" style="whiteSpace=wrap;html=1;aspect=fixed;" parent="a1OFb-E73zAF7D2NQ2un-406" vertex="1">
          <mxGeometry x="109.24137931034483" y="98.1439517522638" width="9.10344827586207" height="9.10344827586207" as="geometry" />
        </mxCell>
        <mxCell id="a1OFb-E73zAF7D2NQ2un-247" value="" style="whiteSpace=wrap;html=1;aspect=fixed;" parent="a1OFb-E73zAF7D2NQ2un-406" vertex="1">
          <mxGeometry x="100.13793103448276" y="107.52046381419785" width="9.10344827586207" height="9.10344827586207" as="geometry" />
        </mxCell>
        <mxCell id="a1OFb-E73zAF7D2NQ2un-248" value="" style="whiteSpace=wrap;html=1;aspect=fixed;" parent="a1OFb-E73zAF7D2NQ2un-406" vertex="1">
          <mxGeometry x="109.24137931034483" y="107.52046381419785" width="9.10344827586207" height="9.10344827586207" as="geometry" />
        </mxCell>
        <mxCell id="a1OFb-E73zAF7D2NQ2un-249" value="" style="whiteSpace=wrap;html=1;aspect=fixed;" parent="a1OFb-E73zAF7D2NQ2un-406" vertex="1">
          <mxGeometry x="100.13793103448276" y="51.261391442593535" width="9.10344827586207" height="9.10344827586207" as="geometry" />
        </mxCell>
        <mxCell id="a1OFb-E73zAF7D2NQ2un-250" value="" style="whiteSpace=wrap;html=1;aspect=fixed;fillColor=#97D077;" parent="a1OFb-E73zAF7D2NQ2un-406" vertex="1">
          <mxGeometry x="109.24137931034483" y="51.261391442593535" width="9.10344827586207" height="9.10344827586207" as="geometry" />
        </mxCell>
        <mxCell id="a1OFb-E73zAF7D2NQ2un-251" value="" style="whiteSpace=wrap;html=1;aspect=fixed;fillColor=#FFCCE6;" parent="a1OFb-E73zAF7D2NQ2un-406" vertex="1">
          <mxGeometry x="100.13793103448276" y="41.884879380659484" width="9.10344827586207" height="9.10344827586207" as="geometry" />
        </mxCell>
        <mxCell id="a1OFb-E73zAF7D2NQ2un-252" value="" style="whiteSpace=wrap;html=1;aspect=fixed;fillColor=#97D077;" parent="a1OFb-E73zAF7D2NQ2un-406" vertex="1">
          <mxGeometry x="109.24137931034483" y="41.884879380659484" width="9.10344827586207" height="9.10344827586207" as="geometry" />
        </mxCell>
        <mxCell id="a1OFb-E73zAF7D2NQ2un-253" value="" style="whiteSpace=wrap;html=1;aspect=fixed;fillColor=#FFCCE6;" parent="a1OFb-E73zAF7D2NQ2un-406" vertex="1">
          <mxGeometry x="100.13793103448276" y="32.508367318725426" width="9.10344827586207" height="9.10344827586207" as="geometry" />
        </mxCell>
        <mxCell id="a1OFb-E73zAF7D2NQ2un-254" value="" style="whiteSpace=wrap;html=1;aspect=fixed;" parent="a1OFb-E73zAF7D2NQ2un-406" vertex="1">
          <mxGeometry x="109.24137931034483" y="32.508367318725426" width="9.10344827586207" height="9.10344827586207" as="geometry" />
        </mxCell>
        <mxCell id="a1OFb-E73zAF7D2NQ2un-255" value="" style="whiteSpace=wrap;html=1;aspect=fixed;" parent="a1OFb-E73zAF7D2NQ2un-406" vertex="1">
          <mxGeometry x="100.13793103448276" y="23.131855256791376" width="9.10344827586207" height="9.10344827586207" as="geometry" />
        </mxCell>
        <mxCell id="a1OFb-E73zAF7D2NQ2un-256" value="" style="whiteSpace=wrap;html=1;aspect=fixed;" parent="a1OFb-E73zAF7D2NQ2un-406" vertex="1">
          <mxGeometry x="109.24137931034483" y="23.131855256791376" width="9.10344827586207" height="9.10344827586207" as="geometry" />
        </mxCell>
        <mxCell id="a1OFb-E73zAF7D2NQ2un-257" value="&lt;font style=&quot;font-size: 7px;&quot; face=&quot;Helvetica&quot;&gt;`v_1`&lt;/font&gt;" style="text;html=1;align=center;verticalAlign=middle;resizable=0;points=[];autosize=1;strokeColor=none;fillColor=none;" parent="a1OFb-E73zAF7D2NQ2un-406" vertex="1">
          <mxGeometry x="13.655172413793103" width="40" height="30" as="geometry" />
        </mxCell>
        <mxCell id="a1OFb-E73zAF7D2NQ2un-258" value="&lt;font style=&quot;font-size: 7px;&quot; face=&quot;Helvetica&quot;&gt;`v_2`&lt;/font&gt;" style="text;html=1;align=center;verticalAlign=middle;resizable=0;points=[];autosize=1;strokeColor=none;fillColor=none;" parent="a1OFb-E73zAF7D2NQ2un-406" vertex="1">
          <mxGeometry x="22.758620689655174" width="40" height="30" as="geometry" />
        </mxCell>
        <mxCell id="a1OFb-E73zAF7D2NQ2un-259" value="&lt;font style=&quot;font-size: 7px;&quot; face=&quot;Helvetica&quot;&gt;`v_3`&lt;/font&gt;" style="text;html=1;align=center;verticalAlign=middle;resizable=0;points=[];autosize=1;strokeColor=none;fillColor=none;" parent="a1OFb-E73zAF7D2NQ2un-406" vertex="1">
          <mxGeometry x="31.862068965517242" width="40" height="30" as="geometry" />
        </mxCell>
        <mxCell id="a1OFb-E73zAF7D2NQ2un-260" value="&lt;font style=&quot;font-size: 7px;&quot; face=&quot;Helvetica&quot;&gt;`v_4`&lt;/font&gt;" style="text;html=1;align=center;verticalAlign=middle;resizable=0;points=[];autosize=1;strokeColor=none;fillColor=none;" parent="a1OFb-E73zAF7D2NQ2un-406" vertex="1">
          <mxGeometry x="40.96551724137931" width="40" height="30" as="geometry" />
        </mxCell>
        <mxCell id="a1OFb-E73zAF7D2NQ2un-261" value="&lt;font style=&quot;font-size: 7px;&quot; face=&quot;Helvetica&quot;&gt;`e_1`&lt;/font&gt;" style="text;html=1;align=center;verticalAlign=middle;resizable=0;points=[];autosize=1;strokeColor=none;fillColor=none;" parent="a1OFb-E73zAF7D2NQ2un-406" vertex="1">
          <mxGeometry x="50.06896551724138" width="40" height="30" as="geometry" />
        </mxCell>
        <mxCell id="a1OFb-E73zAF7D2NQ2un-262" value="&lt;font style=&quot;font-size: 7px;&quot; face=&quot;Helvetica&quot;&gt;`e_2`&lt;/font&gt;" style="text;html=1;align=center;verticalAlign=middle;resizable=0;points=[];autosize=1;strokeColor=none;fillColor=none;" parent="a1OFb-E73zAF7D2NQ2un-406" vertex="1">
          <mxGeometry x="59.17241379310345" width="40" height="30" as="geometry" />
        </mxCell>
        <mxCell id="a1OFb-E73zAF7D2NQ2un-263" value="&lt;font style=&quot;font-size: 7px;&quot; face=&quot;Helvetica&quot;&gt;`e_3`&lt;/font&gt;" style="text;html=1;align=center;verticalAlign=middle;resizable=0;points=[];autosize=1;strokeColor=none;fillColor=none;" parent="a1OFb-E73zAF7D2NQ2un-406" vertex="1">
          <mxGeometry x="68.27586206896552" width="40" height="30" as="geometry" />
        </mxCell>
        <mxCell id="a1OFb-E73zAF7D2NQ2un-264" value="&lt;font style=&quot;font-size: 7px;&quot; face=&quot;Helvetica&quot;&gt;`e_4`&lt;/font&gt;" style="text;html=1;align=center;verticalAlign=middle;resizable=0;points=[];autosize=1;strokeColor=none;fillColor=none;" parent="a1OFb-E73zAF7D2NQ2un-406" vertex="1">
          <mxGeometry x="77.37931034482759" width="40" height="30" as="geometry" />
        </mxCell>
        <mxCell id="a1OFb-E73zAF7D2NQ2un-265" value="&lt;font style=&quot;font-size: 7px;&quot; face=&quot;Helvetica&quot;&gt;`e_5`&lt;/font&gt;" style="text;html=1;align=center;verticalAlign=middle;resizable=0;points=[];autosize=1;strokeColor=none;fillColor=none;" parent="a1OFb-E73zAF7D2NQ2un-406" vertex="1">
          <mxGeometry x="86.48275862068967" width="40" height="30" as="geometry" />
        </mxCell>
        <mxCell id="a1OFb-E73zAF7D2NQ2un-266" value="&lt;font style=&quot;font-size: 7px;&quot; face=&quot;Helvetica&quot;&gt;`e_6`&lt;/font&gt;" style="text;html=1;align=center;verticalAlign=middle;resizable=0;points=[];autosize=1;strokeColor=none;fillColor=none;" parent="a1OFb-E73zAF7D2NQ2un-406" vertex="1">
          <mxGeometry x="95.58620689655173" width="40" height="30" as="geometry" />
        </mxCell>
        <mxCell id="a1OFb-E73zAF7D2NQ2un-271" value="" style="rounded=0;whiteSpace=wrap;html=1;fillStyle=auto;strokeColor=#FF3333;dashed=1;gradientColor=default;fillColor=none;" parent="a1OFb-E73zAF7D2NQ2un-406" vertex="1">
          <mxGeometry x="63.724137931034484" y="21.56597774244832" width="54.62068965517241" height="39.071925762079196" as="geometry" />
        </mxCell>
        <mxCell id="a1OFb-E73zAF7D2NQ2un-274" value="" style="rounded=0;whiteSpace=wrap;html=1;fillStyle=auto;strokeColor=#FF3333;dashed=1;gradientColor=default;fillColor=none;rotation=90;" parent="a1OFb-E73zAF7D2NQ2un-406" vertex="1">
          <mxGeometry x="18.20689655172414" y="70.01441556646164" width="54.62068965517241" height="39.071925762079196" as="geometry" />
        </mxCell>
        <mxCell id="a1OFb-E73zAF7D2NQ2un-309" value="&lt;font style=&quot;font-size: 9px;&quot; face=&quot;Linux Libertine&quot;&gt;Adjacency matrix of&amp;nbsp; `G_S`&lt;/font&gt;" style="edgeLabel;html=1;align=center;verticalAlign=middle;resizable=0;points=[];labelBackgroundColor=none;" parent="a1OFb-E73zAF7D2NQ2un-406" vertex="1" connectable="0">
          <mxGeometry x="73.73576354679807" y="127.5205640423031" as="geometry" />
        </mxCell>
        <mxCell id="a1OFb-E73zAF7D2NQ2un-407" value="" style="endArrow=classic;html=1;rounded=0;" parent="1" edge="1">
          <mxGeometry width="50" height="50" relative="1" as="geometry">
            <mxPoint x="417.25" y="943.88" as="sourcePoint" />
            <mxPoint x="396.25" y="943.88" as="targetPoint" />
          </mxGeometry>
        </mxCell>
        <mxCell id="a1OFb-E73zAF7D2NQ2un-396" value="&lt;font face=&quot;Linux Libertine&quot; style=&quot;font-size: 9px;&quot;&gt;Non-linear transformation&lt;/font&gt;" style="text;html=1;align=center;verticalAlign=middle;resizable=0;points=[];autosize=1;strokeColor=none;fillColor=none;" parent="1" vertex="1">
          <mxGeometry x="500" y="910" width="120" height="30" as="geometry" />
        </mxCell>
        <mxCell id="a1OFb-E73zAF7D2NQ2un-409" value="" style="endArrow=oval;startArrow=oval;html=1;rounded=0;startFill=1;endFill=1;endSize=2;startSize=2;fillColor=#dae8fc;strokeColor=#6c8ebf;" parent="1" edge="1">
          <mxGeometry width="50" height="50" relative="1" as="geometry">
            <mxPoint x="334.88" y="943" as="sourcePoint" />
            <mxPoint x="354.88" y="943" as="targetPoint" />
          </mxGeometry>
        </mxCell>
        <mxCell id="a1OFb-E73zAF7D2NQ2un-410" value="" style="endArrow=oval;startArrow=oval;html=1;rounded=0;startFill=1;endFill=1;endSize=2;startSize=2;fillColor=#fff2cc;strokeColor=#d6b656;" parent="1" edge="1">
          <mxGeometry width="50" height="50" relative="1" as="geometry">
            <mxPoint x="334.88" y="951" as="sourcePoint" />
            <mxPoint x="354.88" y="951" as="targetPoint" />
          </mxGeometry>
        </mxCell>
        <mxCell id="a1OFb-E73zAF7D2NQ2un-411" value="" style="endArrow=oval;startArrow=oval;html=1;rounded=0;startFill=1;endFill=1;endSize=2;startSize=2;fillColor=#dae8fc;strokeColor=#97D077;" parent="1" edge="1">
          <mxGeometry width="50" height="50" relative="1" as="geometry">
            <mxPoint x="334.88" y="959" as="sourcePoint" />
            <mxPoint x="354.88" y="959" as="targetPoint" />
          </mxGeometry>
        </mxCell>
        <mxCell id="QGsNS1BOvcbffPrAlW64-1" value="" style="endArrow=classic;html=1;rounded=0;" parent="1" edge="1">
          <mxGeometry width="50" height="50" relative="1" as="geometry">
            <mxPoint x="545" y="831.28" as="sourcePoint" />
            <mxPoint x="570" y="831.28" as="targetPoint" />
          </mxGeometry>
        </mxCell>
        <mxCell id="QGsNS1BOvcbffPrAlW64-4" value="" style="endArrow=classic;html=1;rounded=0;" parent="1" edge="1">
          <mxGeometry width="50" height="50" relative="1" as="geometry">
            <mxPoint x="700" y="854.48" as="sourcePoint" />
            <mxPoint x="698" y="922.66" as="targetPoint" />
            <Array as="points">
              <mxPoint x="718" y="854.3199999999999" />
              <mxPoint x="718" y="922.66" />
            </Array>
          </mxGeometry>
        </mxCell>
      </root>
    </mxGraphModel>
  </diagram>
</mxfile>
